{"glyphs":{"0":{"ha":768,"x_min":33,"x_max":729,"o":"m 413 940 q 535 915 478 940 q 636 847 593 890 q 704 747 679 804 q 729 624 729 689 l 729 307 q 704 184 729 242 q 636 83 679 126 q 535 16 593 40 q 413 -8 478 -8 l 350 -8 q 227 16 285 -8 q 126 83 169 40 q 58 184 83 126 q 33 307 33 242 l 33 624 q 58 747 33 689 q 126 847 83 804 q 227 915 169 890 q 350 940 285 940 l 413 940 m 649 563 q 643 574 649 569 q 631 579 638 579 q 619 574 624 579 q 614 563 614 569 q 619 550 614 556 q 631 544 624 544 q 649 563 649 544 m 649 446 q 631 463 649 463 q 614 446 614 463 q 631 428 614 428 q 649 446 649 428 m 614 707 q 602 702 607 707 q 597 690 597 697 q 602 678 597 683 q 614 672 607 672 q 632 690 632 672 q 614 707 632 707 m 447 858 q 435 853 440 858 q 431 840 431 847 q 435 828 431 833 q 447 824 440 824 q 460 828 454 824 q 465 840 465 833 q 447 858 465 858 m 307 867 q 290 849 290 867 q 307 832 290 832 q 325 849 325 832 q 307 867 325 867 m 135 268 q 153 285 153 268 q 135 303 153 303 q 123 297 128 303 q 118 285 118 292 q 123 273 118 278 q 135 268 128 268 m 114 415 q 131 399 114 399 q 149 415 149 399 q 131 433 149 433 q 114 415 114 433 m 135 518 q 153 536 153 518 q 135 553 153 553 q 123 548 128 553 q 118 536 118 543 q 123 524 118 529 q 135 518 128 518 m 144 653 q 161 671 161 653 q 144 688 161 688 q 126 671 126 688 q 144 653 126 653 m 179 153 q 196 169 196 153 q 179 188 196 188 q 163 169 163 188 q 179 153 163 153 m 196 775 q 209 780 204 775 q 214 792 214 785 q 196 810 214 810 q 184 805 189 810 q 179 792 179 800 q 184 780 179 785 q 196 775 189 775 m 290 83 q 307 100 307 83 q 290 117 307 117 q 272 100 272 117 q 290 83 272 83 m 413 71 q 429 88 429 71 q 413 104 429 104 q 394 88 394 104 q 413 71 394 71 m 413 181 q 502 217 465 181 q 539 307 539 254 l 539 433 l 539 497 l 539 624 q 502 713 539 676 q 413 750 465 750 l 350 750 q 301 740 324 750 q 260 713 278 731 q 233 673 243 696 q 224 624 224 650 l 224 497 l 224 433 l 224 307 q 233 258 224 281 q 260 217 243 235 q 301 190 278 200 q 350 181 324 181 l 413 181 m 525 100 q 538 105 532 100 q 543 117 543 110 q 525 135 543 135 q 513 130 518 135 q 508 117 508 125 q 513 105 508 110 q 525 100 518 100 m 561 781 q 579 799 579 781 q 561 815 579 815 q 544 799 544 815 q 561 781 544 781 m 604 203 q 621 221 621 203 q 604 238 621 238 q 588 221 588 238 q 604 203 588 203 m 635 313 q 653 329 653 313 q 635 346 653 346 q 618 329 618 346 q 635 313 618 313 z "},"1":{"ha":421,"x_min":19,"x_max":392,"o":"m 356 126 q 388 11 356 39 q 390 4 392 8 q 383 0 389 0 l 139 0 q 132 4 133 0 q 135 11 131 8 q 167 126 167 39 l 167 760 l 93 760 q 22 939 85 865 q 20 945 19 942 q 26 949 21 949 l 103 949 l 292 949 l 383 949 q 390 945 389 949 q 388 938 392 942 q 356 822 356 913 l 356 760 l 356 644 l 356 443 l 356 199 l 356 126 m 139 839 q 157 856 157 839 q 139 874 157 874 q 122 856 122 874 q 139 839 122 839 m 257 64 q 275 82 275 64 q 269 94 275 89 q 257 99 264 99 q 245 94 250 99 q 240 82 240 89 q 257 64 240 64 m 257 196 q 275 214 275 196 q 257 231 275 231 q 240 214 240 231 q 257 196 240 196 m 257 324 q 275 340 275 324 q 257 358 275 358 q 240 340 240 358 q 257 324 240 324 m 257 451 q 275 469 275 451 q 257 486 275 486 q 240 469 240 486 q 257 451 240 451 m 258 582 q 276 599 276 582 q 258 617 276 617 q 242 599 242 617 q 258 582 242 582 m 240 728 q 257 710 240 710 q 275 728 275 710 q 269 740 275 735 q 257 744 264 744 q 245 740 250 744 q 240 728 240 735 m 258 839 q 276 856 276 839 q 258 874 276 874 q 242 856 242 874 q 258 839 242 839 z "},"2":{"ha":775,"x_min":35,"x_max":731,"o":"m 718 221 q 726 224 722 225 q 731 217 731 222 l 731 189 l 731 0 l 446 0 l 382 0 l 318 0 l 35 0 l 35 228 q 62 361 35 299 q 135 469 89 424 q 243 542 181 515 q 376 569 306 569 l 382 569 l 446 569 q 513 597 485 569 q 540 664 540 624 q 513 731 540 704 q 446 758 485 758 l 382 758 l 318 758 q 281 750 299 758 q 254 722 267 743 q 257 674 242 700 q 251 664 261 664 l 224 664 l 35 664 q 57 774 35 722 q 117 865 79 826 q 208 926 156 904 q 318 949 260 949 l 382 949 l 446 949 q 556 926 504 949 q 647 865 608 904 q 708 774 686 826 q 731 664 731 722 q 708 553 731 606 q 647 463 686 501 q 556 401 608 424 q 446 379 504 379 l 382 379 l 376 379 q 317 367 344 379 q 268 335 289 356 q 235 286 247 314 q 224 228 224 258 l 224 189 l 318 189 l 382 189 l 446 189 l 603 189 q 718 221 693 189 m 171 721 q 183 726 178 721 q 188 738 188 731 q 171 756 188 756 q 153 738 153 756 q 158 726 153 731 q 171 721 164 721 m 232 814 q 249 831 249 814 q 232 847 249 847 q 214 831 214 847 q 232 814 214 814 m 350 836 q 362 842 357 836 q 367 854 367 847 q 362 866 367 861 q 350 871 357 871 q 332 854 332 871 q 350 836 332 836 m 479 836 q 491 842 486 836 q 496 854 496 847 q 491 866 496 861 q 479 871 486 871 q 461 854 461 871 q 479 836 461 836 m 613 539 q 629 556 629 539 q 613 574 629 574 q 596 556 596 574 q 613 539 596 539 m 628 694 q 610 678 610 694 q 628 660 610 660 q 644 678 644 660 q 628 694 644 694 m 583 810 q 567 792 567 810 q 572 780 567 785 q 583 775 576 775 q 596 780 590 775 q 601 792 601 785 q 583 810 601 810 m 496 497 q 479 479 479 497 q 496 463 479 463 q 513 479 513 463 q 496 497 513 497 m 375 479 q 358 463 358 479 q 375 444 358 444 q 393 463 393 444 q 375 479 393 479 m 249 454 q 236 449 242 454 q 231 438 231 444 q 249 419 231 419 q 265 438 265 419 q 260 449 265 444 q 249 454 256 454 m 144 82 q 156 87 151 82 q 161 99 161 92 q 144 117 161 117 q 126 99 126 117 q 132 87 126 92 q 144 82 138 82 m 144 204 q 156 209 151 204 q 161 221 161 214 q 144 239 161 239 q 126 221 126 239 q 132 209 126 214 q 144 204 138 204 m 161 336 q 179 353 179 336 q 161 369 179 369 q 144 353 144 369 q 161 336 144 336 m 285 92 q 286 106 288 99 q 278 115 285 113 q 254 110 264 125 q 253 96 251 103 q 261 86 254 89 q 285 92 275 76 m 410 92 q 411 106 413 99 q 404 115 410 113 q 381 110 389 125 q 378 96 376 103 q 386 86 379 89 q 400 83 393 82 q 410 92 407 85 m 525 96 q 526 110 528 103 q 519 119 525 117 q 494 114 504 129 q 493 100 492 107 q 501 90 494 93 q 515 88 508 88 q 525 96 522 89 m 657 92 q 659 106 661 99 q 650 115 657 113 q 628 110 635 125 q 625 96 624 103 q 633 86 626 89 q 647 83 640 82 q 657 92 654 85 z "},"3":{"ha":764,"x_min":35,"x_max":733,"o":"m 446 949 q 558 926 507 949 q 647 867 610 904 q 706 780 683 829 q 731 678 728 731 q 716 572 733 625 q 657 474 699 519 q 713 386 696 431 q 729 285 729 342 q 707 174 729 226 q 646 83 685 122 q 555 22 607 44 q 444 0 503 0 l 382 0 l 319 0 q 208 22 260 0 q 117 83 156 44 q 57 174 79 122 q 35 285 35 226 l 35 289 l 224 289 l 256 289 q 261 281 265 289 q 263 217 244 244 q 319 189 281 189 l 382 189 l 444 189 l 446 189 q 512 217 485 190 q 539 285 539 244 q 512 351 539 324 q 444 379 485 379 l 422 379 q 311 350 351 379 q 301 356 301 343 l 301 379 l 301 569 l 306 569 l 358 569 l 422 569 l 444 569 l 446 569 l 447 569 q 513 597 486 569 q 540 664 540 625 q 513 731 540 704 q 446 758 486 758 l 382 758 l 319 758 q 263 731 281 758 q 261 668 244 704 q 256 660 265 660 l 224 660 l 35 660 l 35 664 q 57 774 35 722 q 117 865 79 826 q 208 926 156 904 q 319 949 260 949 l 382 949 l 446 949 m 150 726 q 164 747 167 729 q 156 758 161 754 q 143 760 150 763 q 131 739 125 754 q 138 728 132 732 q 150 726 143 724 m 221 825 q 232 833 228 828 q 233 846 236 839 q 225 856 231 853 q 213 858 219 860 q 200 838 196 853 q 221 825 203 819 m 356 842 q 368 863 374 847 q 347 875 365 881 q 336 868 340 874 q 335 856 332 863 q 356 842 338 839 m 481 842 q 492 850 488 844 q 493 863 496 856 q 472 875 488 879 q 461 868 465 874 q 460 856 457 863 q 481 842 464 839 m 379 457 q 396 474 396 457 q 379 492 396 492 q 361 474 361 492 q 379 457 361 457 m 503 460 q 515 481 521 463 q 494 493 513 499 q 482 472 476 490 q 490 461 485 465 q 503 460 496 457 m 164 203 q 181 219 181 203 q 164 236 181 236 q 146 219 146 236 q 164 203 146 203 m 233 110 q 251 128 251 110 q 233 144 251 144 q 217 128 217 144 q 233 110 217 110 m 369 69 q 381 75 376 69 q 386 88 386 81 q 381 99 386 94 q 369 104 376 104 q 356 99 361 104 q 351 88 351 94 q 369 69 351 69 m 494 88 q 506 92 501 88 q 511 104 511 97 q 506 116 511 111 q 494 121 501 121 q 476 104 476 121 q 494 88 476 88 m 628 679 q 617 672 621 678 q 615 660 613 667 q 636 647 621 643 q 647 654 643 649 q 649 667 651 660 q 628 679 643 683 m 593 793 q 582 785 586 790 q 581 772 578 779 q 601 760 583 754 q 614 781 618 765 q 593 793 611 799 m 593 565 q 582 557 586 563 q 581 544 578 551 q 601 532 583 526 q 614 553 619 535 q 593 565 611 568 m 579 400 q 585 388 579 393 q 597 383 590 383 q 610 388 604 383 q 615 400 615 393 q 597 418 615 418 q 579 400 579 418 m 610 142 q 628 160 628 142 q 610 176 628 176 q 598 172 603 176 q 593 160 593 167 q 598 147 593 153 q 610 142 603 142 m 632 267 q 650 283 650 267 q 632 301 650 301 q 615 283 615 301 q 632 267 615 267 z "},"4":{"ha":713,"x_min":42,"x_max":671,"o":"m 671 950 l 671 760 l 671 733 q 667 726 671 726 q 660 729 663 725 q 543 760 633 760 l 406 760 l 374 760 l 326 760 l 232 760 l 232 753 l 232 663 l 340 663 q 469 637 408 663 q 574 566 529 611 q 644 460 618 521 q 671 332 671 400 q 644 202 671 263 q 574 97 618 142 q 469 26 529 53 q 340 0 408 0 l 326 0 q 216 22 268 0 q 125 83 164 44 q 64 174 86 122 q 42 286 42 226 l 232 286 l 258 286 q 264 276 268 286 q 257 251 257 264 q 262 228 257 239 q 274 210 267 218 q 288 199 281 203 q 322 190 304 190 l 340 190 q 395 201 369 190 q 440 232 421 213 q 469 277 458 251 q 481 332 481 303 q 469 387 481 361 q 440 432 458 413 q 395 463 421 451 q 340 474 369 474 l 42 474 l 42 926 l 42 950 l 322 950 l 326 950 l 374 950 l 671 950 m 154 194 q 171 213 171 194 q 154 229 171 229 q 138 213 138 229 q 154 194 138 194 m 243 103 q 260 121 260 103 q 243 139 260 139 q 225 121 225 139 q 243 103 225 103 m 372 83 q 390 101 390 83 q 372 118 390 118 q 356 101 356 118 q 372 83 356 83 m 567 251 q 578 256 574 251 q 583 268 583 261 q 567 286 583 286 q 549 268 549 286 q 554 256 549 261 q 567 251 560 251 m 567 410 q 549 393 549 410 q 567 376 549 376 q 578 381 574 376 q 583 393 583 386 q 578 405 583 400 q 567 410 574 410 m 514 518 q 496 501 496 518 q 514 485 496 485 q 531 501 531 485 q 514 518 531 518 m 501 174 q 483 156 483 174 q 501 139 483 139 q 513 144 508 139 q 518 156 518 149 q 513 168 518 163 q 501 174 508 174 m 407 589 q 389 571 389 589 q 407 554 389 554 q 419 559 414 554 q 424 571 424 564 q 419 583 424 578 q 407 589 414 589 m 272 601 q 260 596 265 601 q 256 583 256 590 q 260 572 256 576 q 272 567 265 567 q 285 572 279 567 q 290 583 290 576 q 272 601 290 601 m 140 883 q 122 867 122 883 q 140 849 122 849 q 157 867 157 849 q 140 883 157 883 m 142 746 q 124 729 124 746 q 142 713 124 713 q 153 717 149 713 q 158 729 158 722 q 153 741 158 736 q 142 746 149 746 m 144 571 q 163 589 163 571 q 157 601 163 596 q 144 606 151 606 q 133 601 138 606 q 128 589 128 596 q 133 576 128 582 q 144 571 138 571 m 281 849 q 297 867 297 849 q 281 883 297 883 q 263 867 263 883 q 281 849 263 849 m 419 849 q 436 867 436 849 q 419 883 436 883 q 403 867 403 883 q 419 849 403 849 m 557 849 q 575 867 575 849 q 557 883 575 883 q 545 878 550 883 q 540 867 540 874 q 545 854 540 860 q 557 849 550 849 z "},"5":{"ha":724,"x_min":19,"x_max":714,"o":"m 678 128 q 710 13 678 38 q 713 4 714 8 q 706 0 711 0 l 461 0 q 454 4 456 0 q 457 13 453 8 q 489 128 489 38 l 489 332 l 19 332 l 169 703 q 183 854 211 807 q 188 864 176 864 l 439 864 l 432 847 l 389 740 l 314 554 l 301 522 l 489 522 l 489 824 q 457 939 489 911 q 454 946 453 942 q 461 950 456 950 l 615 950 l 706 950 q 713 946 711 950 q 710 939 714 942 q 678 824 678 911 l 678 760 l 678 633 l 678 522 l 678 332 l 678 200 l 678 128 m 176 414 q 194 431 194 414 q 176 449 194 449 q 165 443 169 449 q 160 431 160 438 q 165 419 160 424 q 176 414 169 414 m 217 531 q 233 547 233 531 q 217 565 233 565 q 200 547 200 565 q 217 531 200 531 m 268 642 q 286 658 286 642 q 268 675 286 675 q 251 658 251 675 q 268 642 251 642 m 296 779 q 313 761 296 761 q 331 779 331 761 q 325 791 331 786 q 313 796 319 796 q 301 791 306 796 q 296 779 296 786 m 325 410 q 343 426 343 410 q 325 443 343 443 q 308 426 308 443 q 325 410 308 410 m 460 410 q 478 426 478 410 q 460 443 478 443 q 448 438 453 443 q 443 426 443 433 q 448 415 443 419 q 460 410 453 410 m 586 74 q 604 90 604 74 q 586 108 604 108 q 569 90 569 108 q 586 74 569 74 m 586 206 q 604 224 604 206 q 586 240 604 240 q 569 224 569 240 q 586 206 569 206 m 586 332 q 604 350 604 332 q 586 367 604 367 q 569 350 569 367 q 586 332 569 332 m 586 461 q 604 479 604 461 q 586 496 604 496 q 569 479 569 496 q 586 461 569 461 m 588 592 q 604 608 604 592 q 588 626 604 626 q 569 608 569 626 q 588 592 569 592 m 569 736 q 586 719 569 719 q 604 736 604 719 q 586 754 604 754 q 569 736 569 754 m 588 849 q 604 865 604 849 q 588 882 604 882 q 569 865 569 882 q 588 849 569 849 z "},"6":{"ha":758,"x_min":31,"x_max":728,"o":"m 619 553 q 700 446 674 506 q 727 324 726 386 q 706 204 728 263 q 642 101 683 146 q 542 28 601 56 q 410 0 482 0 l 347 0 q 224 25 282 0 q 124 92 167 50 q 56 192 81 135 q 31 315 31 250 l 31 632 q 56 755 31 697 q 124 856 81 813 q 224 924 167 899 q 347 949 282 949 l 414 949 q 525 928 472 949 q 619 873 578 908 q 689 789 661 838 q 726 683 717 740 l 531 683 l 503 683 q 497 692 494 683 q 494 715 501 703 q 474 738 486 728 q 414 758 449 758 l 347 758 q 258 722 294 758 q 221 632 221 685 l 410 632 q 523 613 474 632 q 619 553 572 594 m 601 771 q 583 754 583 771 q 601 738 583 738 q 618 754 618 738 q 601 771 618 771 m 501 858 q 485 840 485 858 q 501 822 485 822 q 519 840 519 822 q 501 858 519 858 m 381 883 q 363 867 363 883 q 381 849 363 849 q 397 867 397 849 q 381 883 397 883 m 257 867 q 245 861 250 867 q 240 849 240 856 q 245 837 240 842 q 257 832 250 832 q 269 837 264 832 q 275 849 275 842 q 257 867 275 867 m 513 536 q 496 519 496 536 q 513 501 496 501 q 531 519 531 501 q 513 536 531 536 m 385 558 q 367 540 367 558 q 385 524 367 524 q 401 540 401 524 q 385 558 401 558 m 257 558 q 240 540 240 558 q 257 524 240 524 q 274 540 274 524 q 257 558 274 558 m 135 647 q 123 642 128 647 q 118 631 118 638 q 123 618 118 624 q 135 613 128 613 q 153 631 153 613 q 135 647 153 647 m 131 506 q 113 488 113 506 q 118 476 113 481 q 131 471 124 471 q 142 476 138 471 q 147 488 147 481 q 142 500 147 494 q 131 506 138 506 m 108 358 q 114 347 108 351 q 126 342 119 342 q 138 347 133 342 q 143 358 143 351 q 126 376 143 376 q 108 358 108 376 m 147 215 q 159 220 154 215 q 164 232 164 225 q 159 244 164 239 q 147 250 154 250 q 129 232 129 250 q 135 220 129 225 q 147 215 140 215 m 172 738 q 189 754 189 738 q 172 771 189 771 q 156 754 156 771 q 172 738 156 738 m 222 117 q 235 122 229 117 q 240 133 240 126 q 222 151 240 151 q 210 146 215 151 q 206 133 206 140 q 210 122 206 126 q 222 117 215 117 m 344 68 q 361 85 361 68 q 344 103 361 103 q 326 85 326 103 q 344 68 326 68 m 483 85 q 500 103 500 85 q 483 119 500 119 q 465 103 465 119 q 483 85 465 85 m 410 189 q 459 199 436 189 q 499 226 482 208 q 526 266 517 243 q 536 315 536 289 q 526 365 536 342 q 499 406 517 389 q 459 433 482 424 q 410 443 436 443 l 221 443 l 221 315 q 231 266 221 289 q 258 226 240 243 q 298 199 275 208 q 347 189 321 189 l 410 189 m 588 172 q 606 190 606 172 q 588 207 606 207 q 576 202 581 207 q 571 190 571 197 q 576 178 571 183 q 588 172 581 172 m 606 413 q 618 417 613 413 q 624 429 624 422 q 606 447 624 447 q 588 429 588 447 q 593 417 588 422 q 606 413 599 413 m 640 292 q 658 310 658 292 q 640 326 658 326 q 624 310 624 326 q 640 292 624 292 z "},"7":{"ha":754,"x_min":10,"x_max":743,"o":"m 442 164 q 431 11 397 43 q 433 4 435 8 q 426 0 432 0 l 176 0 l 467 760 l 201 760 q 89 717 124 760 q 83 713 86 713 q 78 718 79 714 l 10 949 l 743 949 l 442 164 m 126 832 q 143 850 143 832 q 138 862 143 857 q 126 867 133 867 q 114 862 119 867 q 108 850 108 857 q 126 832 108 832 m 246 832 q 258 838 253 832 q 263 850 263 843 q 258 862 263 857 q 246 867 253 867 q 233 862 239 867 q 228 850 228 857 q 246 832 228 832 m 368 832 q 386 850 386 832 q 381 862 386 857 q 368 867 375 867 q 356 862 361 867 q 351 850 351 857 q 368 832 351 832 m 319 68 q 336 85 336 68 q 319 103 336 103 q 303 85 303 103 q 319 68 303 68 m 364 188 q 381 206 381 188 q 376 217 381 213 q 364 222 371 222 q 351 217 357 222 q 346 206 346 213 q 364 188 346 188 m 397 321 q 415 338 415 321 q 397 356 415 356 q 385 350 390 356 q 381 338 381 344 q 385 326 381 331 q 397 321 390 321 m 614 867 q 602 862 607 867 q 597 850 597 857 q 614 832 597 832 q 632 850 632 832 q 626 862 632 857 q 614 867 621 867 m 556 736 q 538 719 538 736 q 556 703 538 703 q 567 708 563 703 q 572 719 572 713 q 567 731 572 726 q 556 736 563 736 m 519 592 q 503 608 519 608 q 485 592 485 608 q 503 574 485 574 q 519 592 519 574 m 490 867 q 478 862 483 867 q 472 850 472 857 q 490 832 472 832 q 507 850 507 832 q 502 862 507 857 q 490 867 497 867 m 433 457 q 450 439 433 439 q 467 457 467 439 q 462 469 467 464 q 450 474 457 474 q 438 469 443 474 q 433 457 433 464 z "},"8":{"ha":765,"x_min":15,"x_max":744,"o":"m 635 554 q 715 446 689 506 q 743 324 742 386 q 722 204 744 263 q 659 101 700 146 q 558 28 618 56 q 426 0 499 0 l 333 0 q 201 28 261 0 q 101 101 142 56 q 38 204 60 146 q 16 324 15 263 q 43 446 17 386 q 124 554 69 506 q 80 686 81 617 q 110 814 79 756 q 199 910 140 872 q 333 949 257 949 l 426 949 q 561 910 503 949 q 650 814 619 872 q 679 686 681 756 q 635 554 678 617 m 517 543 q 505 538 510 543 q 500 525 500 532 q 505 513 500 518 q 517 508 510 508 q 535 525 535 508 q 517 543 535 543 m 453 867 q 441 862 446 867 q 436 850 436 857 q 441 838 436 843 q 453 832 446 832 q 471 850 471 832 q 453 867 471 867 m 319 867 q 303 850 303 867 q 319 832 303 832 q 338 850 338 832 q 319 867 338 867 m 333 760 q 288 742 307 760 q 269 696 269 724 q 288 651 269 669 q 333 633 307 633 l 426 633 q 471 651 453 633 q 489 696 489 669 q 471 742 489 724 q 426 760 453 760 l 333 760 m 401 533 q 383 551 401 551 q 367 533 367 551 q 383 517 367 517 q 401 533 401 517 m 250 556 q 238 551 243 556 q 233 539 233 546 q 250 521 233 521 q 268 539 268 521 q 263 551 268 546 q 250 556 257 556 m 207 810 q 189 792 189 810 q 207 774 189 774 q 219 779 214 774 q 224 792 224 785 q 219 804 224 799 q 207 810 214 810 m 115 300 q 127 305 122 300 q 132 317 132 310 q 127 329 132 324 q 115 335 122 335 q 97 317 97 335 q 115 300 97 300 m 136 443 q 154 425 136 425 q 171 443 171 425 q 154 460 171 460 q 136 443 136 460 m 163 182 q 181 199 181 182 q 163 217 181 217 q 146 199 146 217 q 163 182 146 182 m 193 639 q 210 657 210 639 q 193 674 210 674 q 175 657 175 674 q 193 639 175 639 m 263 96 q 281 113 281 96 q 263 129 281 129 q 246 113 246 129 q 263 96 246 96 m 383 69 q 401 86 401 69 q 383 104 401 104 q 367 86 367 104 q 383 69 367 69 m 507 86 q 524 104 524 86 q 507 121 524 121 q 489 104 489 121 q 507 86 489 86 m 426 190 q 516 227 479 190 q 553 317 553 264 q 516 406 553 369 q 426 443 479 443 l 333 443 q 244 406 281 443 q 207 317 207 369 q 244 227 207 264 q 333 190 281 190 l 426 190 m 565 626 q 583 643 583 626 q 565 661 583 661 q 549 643 549 661 q 565 626 549 626 m 565 757 q 578 762 572 757 q 583 774 583 767 q 565 792 583 792 q 549 774 549 792 q 553 762 549 767 q 565 757 558 757 m 600 176 q 618 194 618 176 q 600 213 618 213 q 583 194 583 213 q 600 176 583 176 m 622 417 q 634 422 629 417 q 639 435 639 428 q 634 447 639 442 q 622 451 629 451 q 604 435 604 451 q 622 417 604 417 m 653 296 q 669 313 669 296 q 653 331 669 331 q 636 313 636 331 q 653 296 636 296 z "},"9":{"ha":746,"x_min":28,"x_max":725,"o":"m 408 949 q 531 924 474 949 q 632 856 589 899 q 700 756 675 814 q 725 633 725 699 l 725 317 q 700 194 725 251 q 632 93 675 136 q 531 25 589 50 q 408 0 474 0 l 340 0 q 230 20 282 0 q 136 76 178 40 q 67 160 94 111 q 29 265 39 208 l 225 265 l 251 265 q 258 257 260 265 q 262 234 254 246 q 282 211 269 222 q 342 190 307 190 l 408 190 q 458 200 435 190 q 498 227 481 210 q 525 267 515 244 q 535 317 535 290 l 346 317 q 233 335 282 317 q 136 396 183 354 q 56 504 82 444 q 28 625 29 564 q 50 744 28 686 q 113 848 72 803 q 213 921 154 893 q 346 949 272 949 l 408 949 m 163 175 q 179 193 179 175 q 163 210 179 210 q 144 193 144 210 q 163 175 144 175 m 263 89 q 274 94 269 89 q 279 107 279 100 q 274 119 279 114 q 263 124 269 124 q 250 119 256 124 q 244 107 244 114 q 263 89 244 89 m 383 63 q 400 81 400 63 q 395 92 400 88 q 383 97 390 97 q 371 92 376 97 q 365 81 365 88 q 383 63 365 63 m 506 81 q 524 97 524 81 q 506 114 524 114 q 489 97 489 114 q 506 81 489 81 m 617 732 q 599 714 599 732 q 617 697 599 697 q 633 714 633 697 q 617 732 633 732 m 419 879 q 401 861 401 879 q 407 849 401 854 q 419 844 413 844 q 431 849 426 844 q 436 861 436 854 q 431 874 436 868 q 419 879 426 879 m 281 861 q 263 844 263 861 q 281 828 263 828 q 297 844 297 828 q 281 861 297 861 m 122 619 q 135 624 129 619 q 140 636 140 629 q 122 654 140 654 q 106 636 106 654 q 110 624 106 629 q 122 619 115 619 m 157 499 q 175 517 175 499 q 157 533 175 533 q 145 528 150 533 q 140 517 140 524 q 145 504 140 510 q 157 499 150 499 m 175 739 q 193 757 193 739 q 188 769 193 764 q 175 774 182 774 q 163 769 168 774 q 157 757 157 764 q 175 739 157 739 m 250 410 q 268 428 268 410 q 263 440 268 435 q 250 444 257 444 q 238 440 243 444 q 233 428 233 435 q 238 415 233 421 q 250 410 243 410 m 379 389 q 396 406 396 389 q 379 424 396 424 q 363 406 363 424 q 379 389 363 389 m 506 389 q 524 406 524 389 q 506 424 524 424 q 489 406 489 424 q 506 389 489 389 m 535 633 q 525 683 535 660 q 498 723 515 706 q 458 750 481 740 q 408 760 435 760 l 346 760 q 297 750 319 760 q 256 723 274 740 q 229 683 239 706 q 219 633 219 660 q 229 584 219 607 q 256 544 239 561 q 297 516 274 526 q 346 506 319 506 l 535 506 l 535 633 m 540 796 q 558 813 558 796 q 540 829 558 829 q 524 813 524 829 q 540 796 524 796 m 592 175 q 608 193 608 175 q 592 210 608 210 q 574 193 574 210 q 592 175 574 175 m 628 299 q 640 303 635 299 q 646 315 646 308 q 628 333 646 333 q 616 328 621 333 q 611 315 611 322 q 616 303 611 308 q 628 299 621 299 m 633 442 q 650 458 650 442 q 633 476 650 476 q 617 458 617 476 q 633 442 617 442 m 638 569 q 654 588 654 569 q 638 604 654 604 q 621 588 621 604 q 638 569 621 569 z "},"\u0000":{"ha":0,"x_min":0,"x_max":0,"o":""},"\r":{"ha":374,"x_min":0,"x_max":0,"o":""}," ":{"ha":374,"x_min":0,"x_max":0,"o":""},"T":{"ha":736,"x_min":13,"x_max":719,"o":"m 711 949 q 718 945 717 949 q 714 938 719 942 q 683 822 683 910 l 683 760 l 683 732 q 679 725 683 726 q 672 728 675 724 q 557 760 644 760 l 461 760 l 461 644 l 461 443 l 461 199 l 461 126 q 492 11 461 38 q 495 4 496 8 q 488 0 494 0 l 243 0 q 236 4 238 0 q 240 11 235 8 q 271 126 271 39 l 271 760 l 175 760 q 60 728 85 760 q 52 725 56 724 q 49 732 49 726 l 49 760 l 49 822 q 17 938 49 910 q 14 945 13 942 q 21 949 15 949 l 49 949 l 238 949 l 397 949 l 524 949 l 683 949 l 711 949 m 124 847 q 142 865 142 847 q 124 882 142 882 q 107 865 107 882 q 124 847 107 847 m 246 847 q 263 865 263 847 q 246 882 263 882 q 228 865 228 882 q 246 847 228 847 m 367 74 q 379 78 374 74 q 385 90 385 83 q 367 108 385 108 q 350 90 350 108 q 355 78 350 83 q 367 74 360 74 m 367 206 q 379 210 374 206 q 385 222 385 215 q 367 240 385 240 q 350 222 350 240 q 355 210 350 215 q 367 206 360 206 m 367 333 q 385 350 385 333 q 367 367 385 367 q 350 350 350 367 q 367 333 350 333 m 367 461 q 379 466 374 461 q 385 478 385 471 q 367 496 385 496 q 350 478 350 496 q 355 466 350 471 q 367 461 360 461 m 368 592 q 385 608 385 592 q 368 626 385 626 q 350 608 350 626 q 368 592 350 592 m 350 736 q 367 719 350 719 q 385 736 385 719 q 367 754 385 754 q 350 736 350 754 m 368 847 q 385 865 385 847 q 368 882 385 882 q 350 865 350 882 q 368 847 350 847 m 489 847 q 506 865 506 847 q 489 882 506 882 q 471 865 471 882 q 489 847 471 847 m 611 847 q 628 865 628 847 q 611 882 628 882 q 593 865 593 882 q 611 847 593 847 z "},"B":{"ha":719,"x_min":15,"x_max":685,"o":"m 576 553 q 657 446 631 506 q 684 324 683 386 q 663 204 685 263 q 599 101 640 146 q 499 28 558 56 q 367 0 439 0 l 50 0 l 24 0 q 16 3 17 0 q 19 11 15 7 q 50 126 50 38 l 50 822 q 19 938 50 911 q 16 944 15 940 q 24 949 17 949 l 50 949 l 240 949 l 367 949 q 501 910 443 949 q 590 814 560 872 q 620 685 621 756 q 576 553 619 615 m 493 822 q 476 806 476 822 q 493 788 476 788 q 511 806 511 788 q 493 822 511 822 m 515 585 q 497 601 515 601 q 481 585 481 601 q 497 567 481 567 q 515 585 515 567 m 389 875 q 371 857 371 875 q 376 845 371 850 q 389 840 381 840 q 401 845 396 840 q 406 857 406 850 q 401 870 406 865 q 389 875 396 875 m 265 875 q 249 858 249 875 q 265 840 249 840 q 283 858 283 840 q 265 875 283 875 m 240 632 l 367 632 q 411 651 393 632 q 429 696 429 669 q 411 741 429 722 q 367 760 393 760 l 240 760 l 240 632 m 414 519 q 396 538 414 538 q 384 532 389 538 q 379 519 379 526 q 384 508 379 513 q 396 503 389 503 q 408 508 403 503 q 414 519 414 513 m 147 67 q 159 72 154 67 q 164 83 164 76 q 147 101 164 101 q 129 83 129 101 q 135 72 129 76 q 147 67 140 67 m 147 199 q 164 217 164 199 q 159 228 164 224 q 147 233 154 233 q 135 228 140 233 q 129 217 129 224 q 147 199 129 199 m 147 325 q 164 343 164 325 q 147 361 164 361 q 129 343 129 361 q 147 325 129 325 m 147 454 q 159 459 154 454 q 164 471 164 464 q 147 489 164 489 q 129 471 129 489 q 135 459 129 464 q 147 454 140 454 m 147 583 q 165 601 165 583 q 147 619 165 619 q 131 601 131 619 q 147 583 131 583 m 129 729 q 147 713 129 713 q 164 729 164 713 q 147 747 164 747 q 129 729 129 747 m 147 840 q 165 858 165 840 q 147 875 165 875 q 131 858 131 875 q 147 840 131 840 m 257 542 q 240 524 240 542 q 245 512 240 517 q 257 507 250 507 q 269 512 264 507 q 275 524 275 517 q 257 542 275 542 m 261 67 q 273 72 268 67 q 278 83 278 76 q 261 101 278 101 q 244 83 244 101 q 249 72 244 76 q 261 67 254 67 m 386 67 q 398 72 393 67 q 403 83 403 76 q 386 101 403 101 q 368 83 368 101 q 374 72 368 76 q 386 67 379 67 m 367 190 q 456 226 419 190 q 493 315 493 263 q 483 365 493 342 q 456 406 474 389 q 416 433 439 424 q 367 443 393 443 l 240 443 l 240 190 l 367 190 m 496 107 q 513 124 513 107 q 496 140 513 140 q 479 124 479 140 q 496 107 479 107 m 515 438 q 527 442 522 438 q 532 454 532 447 q 527 466 532 461 q 515 471 522 471 q 497 454 497 471 q 515 438 497 438 m 544 679 q 561 696 561 679 q 544 714 561 714 q 526 696 526 714 q 544 679 526 679 m 579 199 q 597 215 597 199 q 579 233 597 233 q 563 215 563 233 q 579 199 563 199 m 589 325 q 606 343 606 325 q 589 360 606 360 q 571 343 571 360 q 589 325 571 325 z "},"P":{"ha":708,"x_min":21,"x_max":690,"o":"m 372 949 q 504 921 444 949 q 605 848 564 893 q 668 744 646 803 q 690 624 690 686 q 663 503 689 563 q 582 396 636 443 q 485 335 535 354 q 372 317 436 317 l 246 317 l 246 126 q 278 11 246 39 q 281 4 282 8 q 274 0 279 0 l 183 0 l 29 0 q 22 4 24 0 q 25 11 21 8 q 57 126 57 39 l 57 822 q 25 938 57 913 q 22 945 21 942 q 29 949 24 949 l 183 949 l 372 949 m 154 72 q 166 78 161 72 q 171 90 171 83 q 166 102 171 97 q 154 107 161 107 q 142 102 147 107 q 136 90 136 97 q 154 72 136 72 m 154 204 q 166 210 161 204 q 171 222 171 215 q 166 234 171 229 q 154 239 161 239 q 142 234 147 239 q 136 222 136 229 q 154 204 136 204 m 154 331 q 166 336 161 331 q 171 349 171 342 q 166 361 171 356 q 154 367 161 367 q 136 349 136 367 q 154 331 136 331 m 154 460 q 166 465 161 460 q 171 478 171 471 q 166 490 171 485 q 154 494 161 494 q 136 478 136 494 q 154 460 136 460 m 154 590 q 172 607 172 590 q 154 625 172 625 q 138 607 138 625 q 154 590 138 590 m 136 735 q 154 718 136 718 q 166 723 161 718 q 171 735 171 728 q 166 747 171 742 q 154 753 161 753 q 136 735 136 753 m 154 847 q 172 864 172 847 q 154 881 172 881 q 138 864 138 881 q 154 847 138 847 m 418 868 q 400 851 400 868 q 418 833 400 833 q 435 851 435 833 q 418 868 435 868 m 282 881 q 270 876 275 881 q 265 864 265 871 q 270 852 265 857 q 282 847 275 847 q 300 864 300 847 q 282 881 300 881 m 282 400 q 295 405 290 400 q 300 417 300 410 q 282 435 300 435 q 270 429 275 435 q 265 417 265 424 q 270 405 265 410 q 282 400 275 400 m 431 400 q 443 405 438 400 q 449 417 449 410 q 431 435 449 435 q 413 417 413 435 q 418 405 413 410 q 431 400 424 400 m 372 507 q 462 544 425 507 q 499 633 499 581 q 489 683 499 660 q 462 723 479 706 q 422 750 444 740 q 372 760 399 760 l 246 760 l 246 507 l 372 507 m 517 786 q 533 768 517 768 q 551 786 551 768 q 533 803 551 803 q 517 786 517 803 m 551 501 q 563 506 558 501 q 568 518 568 511 q 551 536 568 536 q 533 518 533 536 q 539 506 533 511 q 551 501 544 501 m 578 642 q 596 658 596 642 q 578 676 596 676 q 561 658 561 676 q 578 642 561 642 z "},"V":{"ha":738,"x_min":21,"x_max":725,"o":"m 717 950 q 724 946 722 950 q 721 939 725 942 q 689 824 689 913 l 689 521 q 643 297 689 406 l 571 128 q 579 11 551 38 q 583 4 583 8 q 575 0 582 0 l 169 0 q 163 4 164 0 q 165 11 163 8 q 175 128 192 38 l 103 297 q 68 406 79 351 q 57 521 57 461 l 57 824 q 25 939 57 911 q 22 946 21 942 q 29 950 24 950 l 274 950 q 281 946 279 950 q 278 939 282 942 q 246 824 246 911 l 246 633 l 246 521 q 276 371 246 444 l 372 149 l 468 371 q 499 521 499 444 l 499 633 l 499 824 q 468 939 499 913 q 465 946 464 942 q 472 950 465 950 l 717 950 m 169 588 q 153 606 169 606 q 135 588 135 606 q 140 576 135 581 q 153 571 146 571 q 165 576 160 571 q 169 588 169 581 m 144 868 q 126 851 126 868 q 144 835 126 835 q 161 851 161 835 q 144 868 161 868 m 126 715 q 144 697 126 697 q 161 715 161 697 q 144 732 161 732 q 126 715 126 732 m 135 456 q 153 438 135 438 q 169 456 169 438 q 165 467 169 463 q 153 472 160 472 q 140 467 146 472 q 135 456 135 463 m 182 308 q 194 313 189 308 q 199 325 199 318 q 194 338 199 332 q 182 343 189 343 q 164 325 164 343 q 182 308 164 308 m 233 189 q 245 194 240 189 q 250 206 250 199 q 245 218 250 213 q 233 224 240 224 q 215 206 215 224 q 233 189 215 189 m 282 72 q 300 90 300 72 q 294 102 300 97 q 282 107 289 107 q 270 102 275 107 q 265 90 265 97 q 282 72 265 72 m 454 72 q 467 77 461 72 q 472 89 472 82 q 454 107 472 107 q 438 89 438 107 q 442 77 438 82 q 454 72 447 72 m 501 193 q 518 210 518 193 q 501 226 518 226 q 483 210 483 226 q 501 193 483 193 m 558 321 q 576 338 576 321 q 558 354 576 354 q 540 338 540 354 q 558 321 540 321 m 575 446 q 593 464 593 446 q 588 476 593 471 q 575 481 582 481 q 563 476 568 481 q 557 464 557 471 q 575 446 557 446 m 583 575 q 601 592 601 575 q 583 610 601 610 q 565 592 565 610 q 583 575 565 575 m 583 706 q 596 710 590 706 q 601 722 601 715 q 583 740 601 740 q 565 722 565 740 q 571 710 565 715 q 583 706 576 706 m 588 839 q 606 856 606 839 q 588 872 606 872 q 569 856 569 872 q 588 839 569 839 z "},"M":{"ha":924,"x_min":15,"x_max":915,"o":"m 872 126 q 904 11 872 39 q 900 0 915 0 l 656 0 q 649 3 650 0 q 651 11 647 7 q 683 126 683 39 l 683 372 l 574 106 q 563 10 547 43 q 557 0 567 0 l 368 0 q 363 10 357 0 q 351 106 379 40 l 240 375 l 240 164 l 240 163 l 240 126 q 272 11 240 38 q 275 3 276 7 q 268 0 274 0 l 24 0 q 17 3 18 0 q 19 11 15 7 q 50 126 50 38 l 50 822 q 19 938 50 911 q 17 944 15 940 q 24 949 18 949 l 178 949 l 268 949 q 275 944 274 949 q 272 938 276 940 q 246 889 254 924 q 250 851 242 869 l 461 336 l 674 851 q 676 889 682 871 q 651 938 671 922 q 649 944 647 940 q 656 949 650 949 l 810 949 l 900 949 q 908 944 907 949 q 904 938 908 940 q 872 822 872 910 l 872 758 l 872 696 l 872 643 l 872 443 l 872 189 l 872 126 m 140 75 q 157 93 157 75 q 152 105 157 100 q 140 110 147 110 q 128 105 133 110 q 122 93 122 100 q 140 75 122 75 m 140 207 q 157 225 157 207 q 140 242 157 242 q 122 225 122 242 q 140 207 122 207 m 140 335 q 157 351 157 335 q 140 369 157 369 q 122 351 122 369 q 140 335 122 335 m 140 463 q 157 481 157 463 q 140 499 157 499 q 122 481 122 499 q 140 463 122 463 m 142 593 q 153 599 149 593 q 158 611 158 604 q 153 623 158 618 q 142 628 149 628 q 129 623 135 628 q 124 611 124 618 q 142 593 124 593 m 122 739 q 140 721 122 721 q 157 739 157 721 q 152 751 157 746 q 140 756 147 756 q 128 751 133 756 q 122 739 122 746 m 142 850 q 153 855 149 850 q 158 867 158 860 q 153 879 158 874 q 142 885 149 885 q 124 867 124 885 q 142 850 124 850 m 215 683 q 232 701 232 683 q 215 718 232 718 q 197 701 197 718 q 215 683 197 683 m 254 564 q 267 569 261 564 q 272 581 272 574 q 254 599 272 599 q 242 593 247 599 q 238 581 238 588 q 242 569 238 574 q 254 564 247 564 m 299 447 q 315 464 315 447 q 299 481 315 481 q 282 464 282 481 q 299 447 282 447 m 351 329 q 368 346 368 329 q 351 363 368 363 q 333 346 333 363 q 351 329 333 329 m 404 213 q 421 229 421 213 q 404 247 421 247 q 386 229 386 247 q 404 213 386 213 m 456 93 q 474 110 474 93 q 456 126 474 126 q 444 122 449 126 q 439 110 439 117 q 444 98 439 103 q 456 93 449 93 m 514 214 q 532 231 532 214 q 514 247 532 247 q 502 242 507 247 q 497 231 497 238 q 502 219 497 224 q 514 214 507 214 m 565 329 q 582 347 582 329 q 577 359 582 354 q 565 364 572 364 q 553 359 558 364 q 549 347 549 354 q 553 335 549 340 q 565 329 558 329 m 617 447 q 628 453 624 447 q 633 465 633 458 q 628 477 633 472 q 617 482 624 482 q 600 465 600 482 q 617 447 600 447 m 668 574 q 680 578 675 574 q 685 590 685 583 q 680 603 685 597 q 668 608 675 608 q 651 590 651 608 q 668 574 651 574 m 718 686 q 735 704 735 686 q 718 721 735 721 q 701 704 701 721 q 718 686 701 686 m 785 75 q 803 92 803 75 q 785 108 803 108 q 768 92 768 108 q 785 75 768 75 m 785 207 q 803 225 803 207 q 797 237 803 232 q 785 242 792 242 q 773 237 778 242 q 768 225 768 232 q 785 207 768 207 m 785 333 q 803 351 803 333 q 785 368 803 368 q 768 351 768 368 q 785 333 768 333 m 785 463 q 803 481 803 463 q 797 492 803 488 q 785 497 792 497 q 773 492 778 497 q 768 481 768 488 q 785 463 768 463 m 786 593 q 798 598 793 593 q 803 610 803 603 q 798 622 803 617 q 786 626 793 626 q 768 610 768 626 q 786 593 768 593 m 768 738 q 785 721 768 721 q 803 738 803 721 q 785 754 803 754 q 768 738 768 754 m 786 849 q 798 854 793 849 q 803 867 803 860 q 798 878 803 874 q 786 883 793 883 q 768 867 768 883 q 786 849 768 849 z "},"I":{"ha":321,"x_min":26,"x_max":299,"o":"m 258 126 q 290 11 258 38 q 292 4 293 8 q 285 0 292 0 l 42 0 q 34 4 35 0 q 38 11 33 8 q 68 126 68 38 l 68 822 q 38 938 68 913 q 42 949 26 949 l 194 949 l 258 949 l 285 949 q 290 938 299 949 q 258 822 258 914 l 258 760 l 258 644 l 258 443 l 258 190 l 258 126 m 164 75 q 181 93 181 75 q 164 110 181 110 q 146 93 146 110 q 164 75 146 75 m 164 208 q 181 225 181 208 q 164 242 181 242 q 146 225 146 242 q 164 208 146 208 m 164 335 q 181 351 181 335 q 164 369 181 369 q 146 351 146 369 q 164 335 146 335 m 164 463 q 181 481 181 463 q 164 497 181 497 q 146 481 146 497 q 164 463 146 463 m 164 593 q 182 610 182 593 q 164 628 182 628 q 152 623 157 628 q 147 610 147 618 q 152 598 147 603 q 164 593 157 593 m 146 738 q 164 721 146 721 q 181 738 181 721 q 164 756 181 756 q 146 738 146 756 m 164 850 q 182 867 182 850 q 164 885 182 885 q 152 879 157 885 q 147 867 147 874 q 152 855 147 860 q 164 850 157 850 z "},"X":{"ha":731,"x_min":19,"x_max":701,"o":"m 667 126 q 697 11 667 38 q 701 4 701 8 q 693 0 700 0 l 449 0 q 442 4 443 0 q 446 11 440 8 q 476 126 476 38 l 476 190 l 476 221 q 445 326 476 279 q 361 396 414 374 q 277 326 308 374 q 246 221 246 279 l 246 190 l 246 126 q 276 11 246 38 q 280 4 281 8 q 272 0 279 0 l 28 0 q 21 4 22 0 q 25 11 19 8 q 56 126 56 39 l 56 190 l 56 221 q 89 378 56 304 q 183 506 122 453 q 89 634 122 560 q 56 790 56 708 l 56 822 q 25 938 56 910 q 21 944 19 940 q 28 949 22 949 l 272 949 q 280 944 279 949 q 276 938 281 940 q 246 822 246 911 l 246 790 q 277 685 246 732 q 361 615 308 639 q 445 685 414 639 q 476 790 476 732 l 476 822 q 446 938 476 911 q 442 944 440 940 q 449 949 443 949 l 693 949 q 701 944 700 949 q 697 938 701 940 q 667 822 667 911 l 667 790 q 633 634 667 708 q 538 506 600 560 q 633 378 600 453 q 667 221 667 304 l 667 190 l 667 126 m 139 858 q 144 847 139 851 q 157 842 150 842 q 169 847 164 842 q 175 858 175 851 q 157 876 175 876 q 139 858 139 876 m 175 710 q 192 728 192 710 q 175 744 192 744 q 157 728 157 744 q 175 710 157 710 m 144 65 q 161 82 161 65 q 144 100 161 100 q 126 82 126 100 q 144 65 126 65 m 157 189 q 175 206 175 189 q 157 222 175 222 q 139 206 139 222 q 157 189 139 189 m 192 311 q 204 316 199 311 q 210 328 210 321 q 192 346 210 346 q 175 328 175 346 q 180 316 175 321 q 192 311 185 311 m 222 604 q 240 588 222 588 q 258 604 258 588 q 240 621 258 621 q 222 604 222 621 m 257 417 q 275 435 275 417 q 269 447 275 442 q 257 451 264 451 q 244 447 250 451 q 239 435 239 442 q 257 417 239 417 m 357 496 q 375 514 375 496 q 357 531 375 531 q 339 514 339 531 q 357 496 339 496 m 578 885 q 560 867 560 885 q 565 855 560 860 q 578 850 571 850 q 590 855 585 850 q 594 867 594 860 q 578 885 594 885 m 554 744 q 536 728 536 744 q 554 711 536 711 q 572 728 572 711 q 554 744 572 744 m 464 432 q 482 450 482 432 q 476 462 482 457 q 464 467 471 467 q 451 462 457 467 q 446 450 446 457 q 464 432 446 432 m 489 582 q 507 600 507 582 q 489 617 507 617 q 471 600 471 617 q 489 582 471 582 m 535 324 q 553 342 553 324 q 535 358 553 358 q 517 342 517 358 q 535 324 517 324 m 560 215 q 578 199 560 199 q 594 215 594 199 q 578 233 594 233 q 560 215 560 233 m 585 69 q 603 86 603 69 q 585 103 603 103 q 567 86 567 103 q 585 69 567 69 z "},"A":{"ha":749,"x_min":18,"x_max":722,"o":"m 718 11 q 721 3 722 7 q 714 0 719 0 l 469 0 q 463 3 464 0 q 465 11 461 7 q 497 126 497 36 l 497 253 l 243 253 l 243 126 q 275 11 243 36 q 271 0 286 0 l 26 0 q 19 3 21 0 q 22 11 18 7 q 54 126 54 36 l 54 315 l 54 428 q 65 542 54 488 q 100 653 76 597 l 172 821 q 164 938 190 910 q 161 945 160 942 q 168 949 163 949 l 572 949 q 578 938 586 949 q 568 821 551 913 l 640 653 q 675 542 664 597 q 686 428 686 488 l 686 315 l 686 126 q 718 11 686 36 m 575 510 q 558 492 558 510 q 563 480 558 485 q 575 475 568 475 q 588 480 582 475 q 593 492 593 485 q 575 510 593 510 m 458 888 q 442 871 442 888 q 458 853 442 853 q 475 871 475 853 q 458 888 475 888 m 282 875 q 264 858 264 875 q 282 840 264 840 q 300 858 300 840 q 282 875 300 875 m 149 75 q 167 93 167 75 q 161 105 167 100 q 149 110 156 110 q 136 105 142 110 q 131 93 131 100 q 149 75 131 75 m 153 207 q 171 225 171 207 q 166 237 171 232 q 153 242 161 242 q 141 237 146 242 q 136 225 136 232 q 153 207 136 207 m 153 339 q 171 356 171 339 q 153 374 171 374 q 136 356 136 374 q 153 339 136 339 m 161 467 q 174 472 168 467 q 179 483 179 476 q 161 501 179 501 q 144 483 144 501 q 149 472 144 476 q 161 467 154 467 m 179 593 q 196 610 196 593 q 179 626 196 626 q 161 610 161 626 q 179 593 161 593 m 236 721 q 253 738 253 721 q 236 756 253 756 q 218 738 218 756 q 236 721 218 721 m 294 339 q 313 356 313 339 q 294 374 313 374 q 276 356 276 374 q 294 339 276 339 m 438 338 q 449 342 444 338 q 454 354 454 347 q 438 372 454 372 q 419 354 419 372 q 424 342 419 347 q 438 338 429 338 m 497 442 q 467 578 493 513 l 371 801 l 275 578 q 244 442 246 513 l 497 442 m 500 732 q 517 750 517 732 q 500 768 517 768 q 482 750 482 768 q 500 732 482 732 m 529 622 q 547 604 529 604 q 564 622 564 604 q 547 639 564 639 q 529 622 529 639 m 558 360 q 575 342 558 342 q 593 360 593 342 q 575 376 593 376 q 558 360 558 376 m 585 79 q 597 84 592 79 q 601 96 601 89 q 597 108 601 103 q 585 114 592 114 q 567 96 567 114 q 585 79 567 79 m 585 215 q 597 221 592 215 q 601 233 601 226 q 597 245 601 240 q 585 250 592 250 q 572 245 578 250 q 567 233 567 240 q 585 215 567 215 z "},"L":{"ha":618,"x_min":13,"x_max":596,"o":"m 592 11 q 595 4 596 8 q 588 0 594 0 l 561 0 l 28 0 l 26 0 q 24 11 13 3 q 54 126 54 38 l 54 190 l 54 822 q 24 938 54 911 q 28 949 13 949 l 271 949 q 279 945 278 949 q 275 938 281 942 q 244 822 244 911 l 244 696 l 244 569 l 244 379 l 244 317 l 244 190 l 433 190 q 549 221 524 190 q 557 224 553 225 q 561 217 561 224 l 561 190 l 561 126 q 592 11 561 38 m 151 64 q 169 82 169 64 q 151 99 169 99 q 135 82 135 99 q 151 64 135 64 m 151 197 q 169 214 169 197 q 151 232 169 232 q 135 214 135 232 q 151 197 135 197 m 151 324 q 164 328 158 324 q 169 340 169 333 q 151 358 169 358 q 135 340 135 358 q 140 328 135 333 q 151 324 144 324 m 151 453 q 164 458 158 453 q 169 469 169 463 q 151 488 169 488 q 135 469 135 488 q 140 458 135 463 q 151 453 144 453 m 153 582 q 169 600 169 582 q 165 612 169 607 q 153 617 160 617 q 140 612 146 617 q 135 600 135 607 q 153 582 135 582 m 135 728 q 151 710 135 710 q 169 728 169 710 q 164 740 169 735 q 151 744 158 744 q 140 740 144 744 q 135 728 135 735 m 153 839 q 169 857 169 839 q 165 869 169 864 q 153 874 160 874 q 140 869 146 874 q 135 857 135 864 q 153 839 135 839 m 307 64 q 325 82 325 64 q 307 99 325 99 q 290 82 290 99 q 307 64 290 64 m 460 64 q 476 82 476 64 q 460 99 476 99 q 442 82 442 99 q 460 64 442 64 z "},"Y":{"ha":731,"x_min":13,"x_max":717,"o":"m 708 950 q 715 946 714 950 q 713 938 717 942 q 681 822 681 914 l 681 760 l 681 697 q 665 597 681 644 q 619 509 649 549 q 549 440 590 469 q 460 394 508 410 l 460 200 l 460 126 q 490 11 460 38 q 494 4 494 8 q 486 0 493 0 l 242 0 q 235 4 236 0 q 239 11 235 8 q 269 126 269 38 l 269 394 q 179 440 219 410 q 110 509 139 469 q 65 597 81 549 q 49 697 49 644 l 49 760 l 49 822 q 17 938 49 913 q 14 946 13 942 q 21 950 15 950 l 265 950 q 272 946 271 950 q 269 938 274 942 q 238 822 238 913 l 238 760 l 238 697 q 247 647 238 671 q 274 606 257 624 q 315 579 292 589 q 365 569 339 569 q 415 579 392 569 q 454 606 438 589 q 481 647 471 624 q 490 697 490 671 l 490 760 l 490 822 q 460 938 490 913 q 457 946 456 942 q 464 950 458 950 l 708 950 m 146 875 q 129 857 129 875 q 146 840 129 840 q 164 857 164 840 q 146 875 164 875 m 142 719 q 160 738 160 719 q 142 754 160 754 q 130 749 135 754 q 125 738 125 744 q 130 725 125 731 q 142 719 135 719 m 172 596 q 189 614 189 596 q 172 631 189 631 q 154 614 154 631 q 172 596 154 596 m 251 504 q 269 521 269 504 q 251 539 269 539 q 235 521 235 539 q 251 504 235 504 m 369 93 q 381 98 376 93 q 386 110 386 103 q 369 128 386 128 q 353 110 353 128 q 358 98 353 103 q 369 93 363 93 m 369 207 q 386 225 386 207 q 381 237 386 232 q 369 242 376 242 q 358 237 363 242 q 353 225 353 232 q 369 207 353 207 m 369 331 q 386 347 386 331 q 369 365 386 365 q 353 347 353 365 q 369 331 353 331 m 369 456 q 386 472 386 456 q 369 489 386 489 q 353 472 353 489 q 369 456 353 456 m 588 869 q 571 853 571 869 q 588 835 571 835 q 599 840 594 835 q 604 853 604 846 q 599 865 604 860 q 588 869 594 869 m 485 499 q 503 517 503 499 q 485 533 503 533 q 473 528 478 533 q 468 517 468 524 q 473 504 468 510 q 485 499 478 499 m 563 592 q 579 608 579 592 q 563 626 579 626 q 546 608 546 626 q 563 592 546 592 m 592 714 q 603 719 599 714 q 608 732 608 725 q 603 744 608 739 q 592 750 599 750 q 575 732 575 750 q 592 714 575 714 z "},"U":{"ha":735,"x_min":15,"x_max":719,"o":"m 711 949 q 718 945 717 949 q 714 938 719 942 q 683 822 683 911 l 683 317 q 658 194 683 251 q 590 93 633 136 q 490 25 547 50 q 367 0 432 0 q 244 25 301 0 q 143 93 186 50 q 76 194 100 136 q 51 317 51 251 l 51 822 q 19 938 51 913 q 17 945 15 942 q 24 949 18 949 l 268 949 q 275 945 274 949 q 272 938 276 942 q 240 822 240 913 l 240 632 l 240 443 l 240 317 q 250 267 240 290 q 277 227 260 244 q 317 200 294 210 q 367 190 340 190 q 456 227 419 190 q 493 317 493 264 l 493 443 l 493 632 l 493 822 q 463 938 493 913 q 467 949 451 949 l 711 949 m 157 874 q 139 856 139 874 q 144 844 139 849 q 157 839 150 839 q 169 844 164 839 q 175 856 175 849 q 157 874 175 874 m 156 744 q 144 740 149 744 q 139 728 139 735 q 144 715 139 721 q 156 710 149 710 q 174 728 174 710 q 156 744 174 744 m 175 600 q 157 617 175 617 q 139 600 139 617 q 157 582 139 582 q 175 600 175 582 m 156 488 q 144 482 149 488 q 139 469 139 476 q 144 458 139 463 q 156 453 149 453 q 174 469 174 453 q 156 488 174 488 m 139 340 q 144 328 139 333 q 156 324 149 324 q 174 340 174 324 q 156 358 174 358 q 144 353 149 358 q 139 340 139 349 m 164 197 q 182 214 182 197 q 164 232 182 232 q 147 214 147 232 q 164 197 147 197 m 253 115 q 269 132 269 115 q 253 150 269 150 q 236 132 236 150 q 253 115 236 115 m 375 82 q 393 100 393 82 q 375 117 393 117 q 358 100 358 117 q 375 82 358 82 m 585 890 q 567 874 567 890 q 585 856 567 856 q 597 861 592 856 q 601 874 601 867 q 597 885 601 881 q 585 890 592 890 m 501 115 q 519 132 519 115 q 501 150 519 150 q 490 144 494 150 q 485 132 485 139 q 490 120 485 125 q 501 115 494 115 m 572 226 q 584 231 579 226 q 589 243 589 236 q 584 256 589 250 q 572 261 579 261 q 554 243 554 261 q 572 226 554 226 m 589 364 q 606 381 606 364 q 589 399 606 399 q 571 381 571 399 q 589 364 571 364 m 589 478 q 606 494 606 478 q 589 511 606 511 q 571 494 571 511 q 589 478 571 478 m 589 600 q 606 618 606 600 q 589 635 606 635 q 571 618 571 635 q 589 600 571 600 m 589 725 q 606 743 606 725 q 589 760 606 760 q 571 743 571 760 q 589 725 571 725 z "},"H":{"ha":751,"x_min":21,"x_max":732,"o":"m 690 126 q 721 11 690 38 q 724 4 725 8 q 717 0 724 0 l 472 0 q 465 4 467 0 q 469 11 464 8 q 500 126 500 39 l 500 317 l 500 379 l 247 379 l 247 317 l 247 126 q 278 11 247 38 q 281 4 282 8 q 274 0 279 0 l 31 0 q 22 4 24 0 q 26 11 21 8 q 57 126 57 38 l 57 190 l 57 822 q 26 938 57 913 q 22 945 21 942 q 31 949 24 949 l 274 949 q 281 945 279 949 q 278 938 282 942 q 247 822 247 913 l 247 696 l 247 569 l 500 569 l 500 696 l 500 822 q 469 938 500 911 q 465 945 464 942 q 472 949 467 949 l 717 949 q 721 938 732 949 q 690 822 690 913 l 690 126 m 149 64 q 167 81 167 64 q 149 99 167 99 q 132 81 132 99 q 149 64 132 64 m 149 196 q 167 214 167 196 q 149 231 167 231 q 132 214 132 231 q 149 196 132 196 m 149 324 q 167 340 167 324 q 149 357 167 357 q 132 340 132 357 q 149 324 132 324 m 149 451 q 167 469 167 451 q 149 486 167 486 q 132 469 132 486 q 149 451 132 451 m 150 582 q 168 599 168 582 q 150 617 168 617 q 133 599 133 617 q 150 582 133 582 m 132 726 q 149 710 132 710 q 167 726 167 710 q 149 744 167 744 q 132 726 132 744 m 150 839 q 168 856 168 839 q 150 872 168 872 q 133 856 133 872 q 150 839 133 839 m 296 456 q 308 460 303 456 q 313 472 313 465 q 308 485 313 479 q 296 490 303 490 q 278 472 278 490 q 296 456 278 456 m 439 456 q 456 472 456 456 q 439 490 456 490 q 421 472 421 490 q 439 456 421 456 m 596 890 q 578 872 578 890 q 583 860 578 865 q 596 856 589 856 q 608 860 603 856 q 613 872 613 865 q 608 885 613 879 q 596 890 603 890 m 594 761 q 583 756 588 761 q 578 744 578 751 q 594 726 578 726 q 613 744 613 726 q 607 756 613 751 q 594 761 601 761 m 613 617 q 608 628 613 624 q 596 633 603 633 q 583 628 589 633 q 578 617 578 624 q 596 599 578 599 q 608 604 603 599 q 613 617 613 610 m 594 81 q 613 99 613 81 q 594 115 613 115 q 578 99 578 115 q 594 81 578 81 m 594 214 q 613 231 613 214 q 594 249 613 249 q 578 231 578 249 q 594 214 578 214 m 594 340 q 607 345 601 340 q 613 357 613 350 q 594 375 613 375 q 578 357 578 375 q 583 345 578 350 q 594 340 588 340 m 599 461 q 615 478 615 461 q 599 494 615 494 q 582 478 582 494 q 599 461 582 461 z "},"K":{"ha":694,"x_min":3,"x_max":682,"o":"m 646 126 q 678 11 646 39 q 681 4 682 8 q 674 0 679 0 l 429 0 q 422 4 422 0 q 425 11 421 8 q 457 126 457 39 l 457 190 l 457 221 q 442 294 457 260 q 401 356 426 329 q 340 397 375 382 q 267 411 306 411 l 235 411 l 235 317 l 235 190 l 235 126 q 265 11 235 39 q 269 4 271 8 q 263 0 268 0 l 235 0 l 172 0 l 18 0 q 10 4 11 0 q 14 11 10 8 q 44 126 44 38 l 44 822 q 14 938 44 913 q 18 949 3 949 l 263 949 q 269 945 268 949 q 265 938 271 942 q 235 822 235 911 l 235 750 l 235 601 l 267 601 q 340 616 306 601 q 401 656 375 631 q 442 717 426 682 q 457 790 457 751 l 457 822 q 425 938 457 913 q 429 949 414 949 l 674 949 q 681 945 679 949 q 678 938 682 942 q 646 822 646 913 l 646 790 q 613 634 646 708 q 517 507 579 560 q 613 378 579 451 q 646 221 646 304 l 646 190 l 646 126 m 557 881 q 540 864 540 881 q 557 846 540 846 q 575 864 575 846 q 557 881 575 881 m 543 756 q 525 738 525 756 q 543 721 525 721 q 560 738 560 721 q 543 756 560 756 m 140 68 q 157 85 157 68 q 140 103 157 103 q 122 85 122 103 q 140 68 122 68 m 140 200 q 157 217 157 200 q 140 235 157 235 q 122 217 122 235 q 140 200 122 200 m 140 326 q 152 331 147 326 q 157 343 157 336 q 140 361 157 361 q 122 343 122 361 q 128 331 122 336 q 140 326 133 326 m 140 456 q 157 472 157 456 q 140 490 157 490 q 122 472 122 490 q 140 456 122 456 m 140 585 q 158 603 158 585 q 140 619 158 619 q 124 603 124 619 q 140 585 124 585 m 122 731 q 140 713 122 713 q 157 731 157 713 q 140 747 157 747 q 122 731 122 747 m 140 842 q 158 860 158 842 q 153 872 158 867 q 140 876 147 876 q 128 872 133 876 q 124 860 124 867 q 140 842 124 842 m 253 490 q 271 508 271 490 q 266 520 271 515 q 253 525 261 525 q 241 520 246 525 q 236 508 236 515 q 253 490 236 490 m 389 494 q 407 513 407 494 q 389 529 407 529 q 372 513 372 529 q 389 494 372 494 m 469 407 q 481 412 476 407 q 486 424 486 417 q 469 442 486 442 q 451 424 451 442 q 457 412 451 417 q 469 407 463 407 m 486 594 q 504 611 504 594 q 486 629 504 629 q 469 611 469 629 q 486 594 469 594 m 513 317 q 531 300 513 300 q 547 317 547 300 q 531 335 547 335 q 513 317 513 335 m 549 50 q 560 55 556 50 q 565 68 565 60 q 560 80 565 75 q 549 85 556 85 q 531 68 531 85 q 549 50 531 50 m 561 172 q 578 190 578 172 q 561 207 578 207 q 544 190 544 207 q 561 172 544 172 z "},"W":{"ha":1169,"x_min":15,"x_max":1161,"o":"m 1153 949 q 1160 944 1158 949 q 1157 938 1161 940 q 1126 822 1126 911 l 1126 632 l 1126 521 q 1079 296 1126 404 l 1007 128 q 1017 11 990 36 q 1019 3 1021 7 q 1013 0 1018 0 l 631 0 q 624 8 621 0 q 611 128 640 56 l 588 182 l 565 128 q 553 8 536 56 q 547 0 554 0 l 164 0 q 157 3 158 0 q 160 11 156 7 q 168 128 186 36 q 124 230 143 188 q 92 306 106 272 q 71 370 79 340 q 58 436 63 400 q 51 519 53 472 q 50 632 50 565 l 50 822 q 19 938 50 911 q 16 944 15 940 q 24 949 17 949 l 268 949 q 274 944 274 949 q 271 938 275 940 q 240 822 240 910 l 240 632 l 240 521 q 271 371 240 442 l 367 147 l 463 371 q 493 521 493 442 l 493 632 l 493 822 q 463 938 493 911 q 459 944 458 940 q 467 949 460 949 l 711 949 q 718 944 717 949 q 714 938 719 940 q 683 822 683 911 l 683 632 l 683 521 q 714 371 683 442 l 810 147 l 906 371 q 936 521 936 442 l 936 632 l 936 822 q 904 938 936 911 q 901 944 900 940 q 908 949 903 949 l 1153 949 m 160 878 q 142 861 142 878 q 160 844 142 844 q 176 861 176 844 q 160 878 176 878 m 158 750 q 140 732 140 750 q 158 715 140 715 q 176 732 176 715 q 158 750 176 750 m 176 604 q 160 622 176 622 q 142 604 142 622 q 160 588 142 588 q 176 604 176 588 m 140 475 q 158 457 140 457 q 176 475 176 457 q 158 492 176 492 q 140 475 140 492 m 176 324 q 194 342 194 324 q 176 358 194 358 q 160 342 160 358 q 176 324 160 324 m 238 206 q 254 222 254 206 q 238 240 254 240 q 219 222 219 240 q 238 206 219 206 m 290 82 q 302 88 297 82 q 307 100 307 93 q 302 113 307 107 q 290 118 297 118 q 272 100 272 118 q 290 82 272 82 m 432 75 q 450 92 450 75 q 432 110 450 110 q 415 92 415 110 q 432 75 415 75 m 497 193 q 515 210 515 193 q 497 228 515 228 q 481 210 481 228 q 497 193 481 193 m 599 881 q 582 863 582 881 q 599 846 582 846 q 615 863 615 846 q 599 881 615 881 m 594 307 q 607 312 601 307 q 613 324 613 317 q 594 342 613 342 q 578 324 578 342 q 583 312 578 317 q 594 307 588 307 m 597 446 q 615 464 615 446 q 597 482 615 482 q 581 464 581 482 q 597 446 581 446 m 599 572 q 615 589 615 572 q 599 607 615 607 q 582 589 582 607 q 599 572 582 572 m 606 708 q 624 726 624 708 q 618 738 624 733 q 606 743 613 743 q 594 738 599 743 q 589 726 589 733 q 594 714 589 719 q 606 708 599 708 m 683 183 q 700 201 700 183 q 683 218 700 218 q 667 201 667 218 q 683 183 667 183 m 740 61 q 758 79 758 61 q 740 96 758 96 q 724 79 724 96 q 740 61 724 61 m 899 65 q 915 83 915 65 q 899 100 915 100 q 881 83 881 100 q 899 65 881 65 m 951 193 q 963 198 958 193 q 968 210 968 203 q 963 222 968 217 q 951 226 958 226 q 933 210 933 226 q 951 193 933 193 m 986 324 q 1003 342 1003 324 q 986 358 1003 358 q 969 342 969 358 q 986 324 969 324 m 1038 451 q 1054 468 1054 451 q 1038 486 1054 486 q 1021 468 1021 486 q 1038 451 1021 451 m 1039 581 q 1056 599 1056 581 q 1051 610 1056 606 q 1039 615 1046 615 q 1027 610 1032 615 q 1022 599 1022 606 q 1039 581 1022 581 m 1021 726 q 1038 708 1021 708 q 1054 726 1054 708 q 1049 738 1054 733 q 1038 743 1044 743 q 1026 738 1031 743 q 1021 726 1021 733 m 1039 838 q 1051 842 1046 838 q 1056 854 1056 847 q 1039 872 1056 872 q 1022 854 1022 872 q 1027 842 1022 847 q 1039 838 1032 838 z "},"Q":{"ha":738,"x_min":19,"x_max":715,"o":"m 715 317 q 689 190 715 250 q 614 85 663 129 q 688 13 651 32 q 691 5 692 10 q 683 0 690 0 l 463 0 l 458 7 l 451 17 l 328 190 l 244 310 l 433 310 l 481 310 q 486 301 490 310 q 492 257 481 275 l 501 243 q 525 317 525 276 l 525 443 l 525 507 l 525 633 q 488 723 525 686 q 399 760 451 760 l 336 760 q 287 750 310 760 q 247 723 264 740 q 219 683 229 706 q 210 633 210 660 l 210 507 l 210 443 l 210 317 l 210 310 q 234 242 213 272 q 292 199 256 211 l 431 3 q 415 1 424 1 q 399 0 407 0 l 336 0 q 213 25 271 0 q 113 93 156 50 q 44 194 69 136 q 19 317 19 251 l 19 633 q 44 756 19 699 q 113 857 69 814 q 213 925 156 900 q 336 950 271 950 l 399 950 q 522 925 464 950 q 622 857 579 900 q 690 756 665 814 q 715 633 715 699 l 715 317 m 278 124 q 260 106 260 124 q 278 89 260 89 q 296 106 296 89 q 278 124 296 124 m 124 274 q 135 278 131 274 q 140 290 140 283 q 135 303 140 297 q 124 308 131 308 q 106 290 106 308 q 124 274 106 274 m 101 421 q 119 404 101 404 q 136 421 136 404 q 119 438 136 438 q 101 421 101 438 m 124 524 q 135 529 131 524 q 140 542 140 535 q 135 553 140 549 q 124 558 131 558 q 106 542 106 558 q 124 524 106 524 m 132 658 q 150 676 150 658 q 132 693 150 693 q 115 676 115 693 q 132 658 115 658 m 168 158 q 180 163 175 158 q 185 175 185 168 q 180 188 185 182 q 168 193 175 193 q 150 175 150 193 q 155 163 150 168 q 168 158 160 158 m 185 781 q 201 799 201 781 q 197 810 201 806 q 185 815 192 815 q 173 810 178 815 q 168 799 168 806 q 185 781 168 781 m 296 838 q 313 854 313 838 q 296 872 313 872 q 278 854 278 872 q 296 838 278 838 m 436 829 q 454 847 454 829 q 449 859 454 854 q 436 864 443 864 q 424 859 429 864 q 418 847 418 854 q 436 829 418 829 m 393 228 q 411 244 411 228 q 393 261 411 261 q 376 244 376 261 q 393 228 376 228 m 454 144 q 471 161 471 144 q 454 178 471 178 q 438 161 438 178 q 454 144 438 144 m 638 568 q 619 585 638 585 q 601 568 601 585 q 619 551 601 551 q 638 568 638 551 m 636 451 q 619 468 636 468 q 601 451 601 468 q 619 433 601 433 q 636 451 636 433 m 603 713 q 585 696 585 713 q 603 679 585 679 q 615 684 610 679 q 619 696 619 689 q 615 708 619 703 q 603 713 610 713 m 515 54 q 527 59 522 54 q 532 71 532 64 q 527 83 532 78 q 515 89 522 89 q 497 71 497 89 q 515 54 497 54 m 549 786 q 567 804 567 786 q 549 821 567 821 q 537 816 542 821 q 532 804 532 811 q 537 792 532 797 q 549 786 542 786 m 592 208 q 610 226 610 208 q 592 243 610 243 q 575 226 575 243 q 592 208 575 208 m 606 335 q 624 318 606 318 q 635 323 631 318 q 640 335 640 328 q 635 347 640 342 q 624 353 631 353 q 606 335 606 353 z "},"E":{"ha":757,"x_min":-1,"x_max":729,"o":"m 694 126 q 725 10 694 36 q 728 3 729 7 q 721 0 728 0 l 35 0 q 27 3 28 0 q 31 10 26 7 q 61 126 61 36 l 61 189 l 61 822 q -1 949 61 949 l 721 949 q 728 944 728 949 q 725 938 729 940 q 694 822 694 911 l 694 758 l 694 731 q 690 724 694 725 q 683 728 686 722 q 568 758 657 758 l 251 758 l 251 696 l 251 569 l 442 569 q 557 600 531 569 q 564 603 560 604 q 568 596 568 601 l 568 569 l 568 506 l 568 379 l 568 351 q 564 344 568 346 q 557 347 560 343 q 442 379 529 379 l 251 379 l 251 317 l 251 189 l 568 189 q 683 221 656 189 q 690 224 686 225 q 694 217 694 222 l 694 189 l 694 126 m 499 488 q 482 469 482 488 q 499 453 482 453 q 517 469 517 453 q 499 488 517 488 m 619 874 q 608 869 613 874 q 603 857 603 864 q 608 844 603 850 q 619 839 613 839 q 638 857 638 839 q 619 874 638 874 m 507 874 q 489 857 489 874 q 507 839 489 839 q 519 844 514 839 q 524 857 524 850 q 519 869 524 864 q 507 874 514 874 m 390 874 q 372 857 372 874 q 390 839 372 839 q 402 844 397 839 q 407 857 407 850 q 402 869 407 864 q 390 874 397 874 m 271 874 q 254 857 254 874 q 271 839 254 839 q 288 857 288 839 q 271 874 288 874 m 382 488 q 365 469 365 488 q 382 453 365 453 q 400 469 400 453 q 382 488 400 488 m 268 488 q 250 469 250 488 q 268 453 250 453 q 280 458 275 453 q 285 469 285 463 q 280 482 285 476 q 268 488 275 488 m 150 65 q 168 82 168 65 q 150 100 168 100 q 133 82 133 100 q 150 65 133 65 m 150 197 q 168 214 168 197 q 150 232 168 232 q 133 214 133 232 q 150 197 133 197 m 150 324 q 168 342 168 324 q 150 358 168 358 q 133 342 133 358 q 150 324 133 324 m 150 453 q 168 469 168 453 q 150 488 168 488 q 133 469 133 488 q 150 453 133 453 m 151 582 q 169 600 169 582 q 151 617 169 617 q 133 600 133 617 q 151 582 133 582 m 133 728 q 150 711 133 711 q 168 728 168 711 q 150 746 168 746 q 133 728 133 746 m 151 839 q 169 857 169 839 q 151 874 169 874 q 133 857 133 874 q 151 839 133 839 m 267 65 q 285 82 285 65 q 267 100 285 100 q 250 82 250 100 q 267 65 250 65 m 382 65 q 394 70 389 65 q 399 82 399 75 q 394 94 399 89 q 382 100 389 100 q 364 82 364 100 q 382 65 364 65 m 499 65 q 515 82 515 65 q 499 100 515 100 q 481 82 481 100 q 499 65 481 65 m 621 65 q 633 70 628 65 q 638 82 638 75 q 633 94 638 89 q 621 100 628 100 q 603 82 603 100 q 621 65 603 65 z "},"J":{"ha":724,"x_min":19,"x_max":724,"o":"m 715 949 q 722 944 721 949 q 719 938 724 940 q 688 822 688 910 l 688 315 q 663 192 688 250 q 594 92 638 135 q 494 25 551 50 q 371 0 436 0 q 248 25 306 0 q 147 92 190 50 q 79 192 104 135 q 54 315 54 250 q 24 431 54 406 q 21 439 19 435 q 28 443 22 443 l 54 443 l 244 443 l 272 443 q 279 439 278 443 q 276 431 281 435 q 244 315 244 406 q 281 226 244 263 q 371 189 318 189 q 421 199 397 189 q 462 226 444 208 q 489 266 479 243 q 499 315 499 289 l 499 443 l 499 632 l 499 758 l 182 758 q 67 728 92 758 q 58 724 63 724 q 54 732 54 725 l 54 758 l 54 822 q 24 938 54 911 q 21 944 19 940 q 28 949 22 949 l 54 949 l 715 949 m 143 843 q 138 867 153 858 q 124 868 131 869 q 114 860 117 867 q 119 836 104 847 q 133 835 126 833 q 143 843 140 836 m 256 843 q 250 867 265 858 q 236 868 243 869 q 226 860 229 867 q 224 847 222 854 q 232 836 226 840 q 246 835 239 833 q 256 843 253 836 m 371 847 q 365 871 381 861 q 351 872 358 874 q 342 865 344 871 q 347 840 333 850 q 361 839 354 838 q 371 847 368 840 m 490 843 q 485 867 500 858 q 471 868 478 869 q 461 860 464 867 q 467 836 451 847 q 481 835 474 833 q 490 843 488 836 m 138 361 q 154 343 138 343 q 172 361 172 343 q 154 379 172 379 q 138 361 138 379 m 163 224 q 181 242 181 224 q 175 253 181 249 q 163 258 169 258 q 151 253 156 258 q 146 242 146 249 q 163 224 146 224 m 251 117 q 269 135 269 117 q 251 151 269 151 q 240 147 244 151 q 235 135 235 142 q 240 122 235 128 q 251 117 244 117 m 374 72 q 385 78 381 72 q 390 90 390 83 q 385 102 390 97 q 374 107 381 107 q 356 90 356 107 q 374 72 356 72 m 576 860 q 575 847 574 854 q 583 836 576 840 q 607 843 597 829 q 608 857 610 850 q 600 867 607 864 q 576 860 586 874 m 592 611 q 574 594 574 611 q 592 576 574 576 q 608 594 608 576 q 592 611 608 611 m 488 97 q 506 115 506 97 q 488 132 506 132 q 471 115 471 132 q 488 97 471 97 m 574 190 q 592 208 592 190 q 586 220 592 215 q 574 225 581 225 q 562 220 567 225 q 557 208 557 215 q 562 195 557 200 q 574 190 567 190 m 592 319 q 608 336 608 319 q 592 353 608 353 q 574 336 574 353 q 592 319 574 319 m 592 449 q 610 467 610 449 q 592 483 610 483 q 580 478 585 483 q 575 467 575 474 q 580 454 575 460 q 592 449 585 449 m 592 706 q 604 710 599 706 q 610 722 610 715 q 592 740 610 740 q 580 735 585 740 q 575 722 575 729 q 580 710 575 715 q 592 706 585 706 z "},"Z":{"ha":782,"x_min":13,"x_max":772,"o":"m 708 126 q 740 11 708 36 q 743 3 744 7 q 736 0 742 0 l 708 0 l 13 0 l 446 758 l 203 758 q 88 728 115 758 q 80 724 83 724 q 76 732 76 725 l 76 758 l 76 822 q 44 938 76 910 q 42 944 40 940 q 49 949 43 949 l 76 949 l 772 949 l 339 189 l 582 189 q 697 221 669 189 q 705 224 701 225 q 708 217 708 222 l 708 189 l 708 126 m 165 851 q 167 865 168 858 q 158 875 165 872 q 135 868 146 883 q 142 846 128 853 q 165 851 156 836 m 286 851 q 288 865 290 858 q 281 875 286 872 q 267 877 274 879 q 257 868 260 875 q 263 846 247 853 q 276 843 269 842 q 286 851 283 844 m 401 856 q 403 869 404 863 q 396 879 403 876 q 382 881 389 882 q 372 872 375 879 q 369 860 368 867 q 378 850 371 853 q 392 847 385 846 q 401 856 399 849 m 619 868 q 626 846 613 853 q 650 851 640 836 q 651 865 653 858 q 643 875 650 872 q 619 868 631 883 m 540 769 q 538 757 536 764 q 546 747 539 750 q 560 744 553 743 q 569 753 567 746 q 564 776 579 768 q 550 778 557 779 q 540 769 543 776 m 492 868 q 497 846 482 853 q 511 843 504 842 q 521 851 518 844 q 522 865 524 858 q 514 875 521 872 q 501 877 508 879 q 492 868 494 875 m 475 660 q 481 635 465 644 q 494 633 488 632 q 504 642 501 635 q 499 665 514 657 q 485 667 492 668 q 475 660 478 665 m 411 547 q 418 524 404 533 q 442 531 432 517 q 435 554 449 544 q 411 547 421 564 m 346 436 q 343 422 342 429 q 351 413 344 415 q 365 410 358 408 q 376 418 372 413 q 378 432 379 425 q 369 442 376 439 q 346 436 356 451 m 182 82 q 175 107 189 97 q 151 100 161 114 q 150 86 149 93 q 158 76 151 79 q 182 82 172 69 m 249 197 q 242 221 256 211 q 228 222 235 224 q 218 215 221 221 q 224 190 210 200 q 249 197 239 183 m 300 81 q 294 104 310 96 q 281 106 288 107 q 271 97 274 104 q 268 85 267 92 q 276 75 269 78 q 290 72 283 71 q 300 81 297 74 m 311 307 q 313 321 314 314 q 306 331 311 328 q 281 325 290 340 q 288 300 274 310 q 301 299 294 297 q 311 307 308 300 m 414 81 q 415 94 417 88 q 407 104 414 101 q 393 106 400 107 q 383 97 386 104 q 381 85 379 92 q 389 75 382 78 q 414 81 404 67 m 529 85 q 531 99 532 92 q 522 108 529 106 q 508 110 515 111 q 499 103 501 108 q 497 89 496 96 q 504 78 497 82 q 529 85 519 69 m 647 81 q 649 94 650 88 q 642 104 649 101 q 628 106 635 107 q 618 97 621 104 q 615 85 614 92 q 624 75 617 78 q 638 72 631 71 q 647 81 644 74 z "},"!":{"ha":299,"x_min":19,"x_max":275,"o":"m 143 185 q 209 158 182 185 q 236 93 236 131 q 209 26 236 53 q 143 0 182 0 q 77 26 104 0 q 50 93 50 53 q 77 158 50 131 q 143 185 104 185 m 151 74 q 163 78 158 74 q 168 90 168 83 q 151 108 168 108 q 133 90 133 108 q 139 78 133 83 q 151 74 144 74 m 240 382 q 271 269 240 294 q 274 262 275 265 q 267 258 272 258 l 28 258 q 21 262 22 258 q 24 269 19 265 q 54 382 54 294 l 54 825 q 24 938 54 911 q 21 944 19 940 q 28 949 22 949 l 178 949 l 240 949 l 267 949 q 274 944 272 949 q 271 938 275 940 q 240 825 240 911 l 240 763 l 240 700 l 240 639 l 240 454 l 240 382 m 151 340 q 168 357 168 340 q 151 374 168 374 q 133 357 133 374 q 151 340 133 340 m 151 465 q 163 470 158 465 q 168 482 168 475 q 151 500 168 500 q 133 482 133 500 q 139 470 133 475 q 151 465 144 465 m 151 593 q 169 610 169 593 q 151 626 169 626 q 140 622 144 626 q 135 610 135 617 q 140 598 135 603 q 151 593 144 593 m 133 735 q 151 718 133 718 q 168 735 168 718 q 151 751 168 751 q 133 735 133 751 m 151 843 q 169 861 169 843 q 164 873 169 868 q 151 878 158 878 q 140 873 144 878 q 135 861 135 868 q 140 849 135 854 q 151 843 144 843 z "},"?":{"ha":781,"x_min":26,"x_max":753,"o":"m 475 943 q 584 922 533 943 q 672 863 635 900 q 731 774 710 825 q 753 665 753 724 q 734 565 753 613 q 683 480 715 517 q 605 419 650 443 q 507 389 560 394 q 474 377 486 386 q 456 347 463 368 q 453 338 453 342 q 472 269 446 290 q 475 262 476 265 q 468 258 474 258 l 232 258 q 225 262 226 258 q 228 269 224 265 q 265 351 264 303 q 286 431 269 392 q 329 502 303 471 q 392 553 356 533 q 475 572 429 572 q 541 599 514 572 q 568 665 568 626 q 541 731 568 704 q 475 758 514 758 l 413 758 l 392 758 l 343 758 l 306 758 q 268 750 285 758 q 254 739 261 746 q 242 722 247 732 q 238 699 238 711 q 244 675 238 688 q 239 665 249 665 l 213 665 l 26 665 q 49 774 26 724 q 108 863 71 825 q 197 922 146 900 q 306 943 247 943 l 329 943 l 392 943 l 413 943 l 475 943 m 150 736 q 167 753 167 736 q 162 765 167 760 q 150 769 157 769 q 138 765 143 769 q 133 753 133 760 q 150 736 133 736 m 229 819 q 247 836 247 819 q 229 853 247 853 q 217 848 222 853 q 213 836 213 843 q 217 824 213 829 q 229 819 222 819 m 347 829 q 365 847 365 829 q 347 864 365 864 q 335 859 340 864 q 331 847 331 854 q 335 835 331 840 q 347 829 340 829 m 489 829 q 501 835 496 829 q 506 847 506 840 q 501 859 506 854 q 489 864 496 864 q 471 847 471 864 q 489 829 471 829 m 365 328 q 382 344 382 328 q 377 356 382 351 q 365 361 372 361 q 353 356 358 361 q 347 344 347 351 q 365 328 347 328 m 417 443 q 428 448 424 443 q 433 460 433 453 q 428 472 433 467 q 417 476 424 476 q 405 472 410 476 q 400 460 400 467 q 417 443 400 443 m 540 476 q 552 482 547 476 q 557 494 557 488 q 552 506 557 501 q 540 511 547 511 q 528 506 533 511 q 524 494 524 501 q 540 476 524 476 m 604 768 q 616 773 611 768 q 621 785 621 778 q 604 801 621 801 q 588 785 588 801 q 592 773 588 778 q 604 768 597 768 m 639 546 q 651 551 646 546 q 656 563 656 556 q 651 574 656 569 q 639 579 646 579 q 626 574 632 579 q 621 563 621 569 q 639 546 621 546 m 672 660 q 689 676 689 660 q 672 693 689 693 q 656 676 656 693 q 672 660 656 660 m 353 185 q 419 158 392 185 q 446 92 446 131 q 419 27 446 54 q 353 0 392 0 q 287 27 314 0 q 260 92 260 54 q 287 158 260 131 q 353 185 314 185 m 353 71 q 365 76 360 71 q 369 88 369 81 q 353 104 369 104 q 336 88 336 104 q 341 76 336 81 q 353 71 346 71 z "},"R":{"ha":697,"x_min":11,"x_max":683,"o":"m 679 11 q 682 4 683 8 q 675 0 681 0 l 431 0 q 424 4 425 0 q 426 11 422 8 q 458 126 458 38 l 458 190 l 458 222 q 444 296 458 261 q 403 356 429 331 q 342 397 376 382 q 268 411 307 411 l 238 411 l 238 317 l 238 190 l 238 126 q 268 11 238 38 q 272 4 272 8 q 264 0 271 0 l 238 0 l 174 0 l 19 0 q 13 4 14 0 q 17 11 11 8 q 47 126 47 39 l 47 822 q 17 938 47 911 q 13 946 11 942 q 19 950 14 950 l 174 950 l 378 950 q 483 928 433 950 q 569 870 532 907 q 627 784 606 833 q 649 679 649 735 q 624 565 649 619 q 553 474 599 511 q 626 356 603 415 q 649 222 649 297 l 649 190 l 649 126 q 679 11 649 38 m 140 60 q 158 76 158 60 q 140 94 158 94 q 124 76 124 94 q 140 60 124 60 m 140 192 q 158 210 158 192 q 153 222 158 217 q 140 226 147 226 q 128 222 133 226 q 124 210 124 217 q 140 192 124 192 m 140 318 q 158 336 158 318 q 153 348 158 343 q 140 353 147 353 q 128 348 133 353 q 124 336 124 343 q 140 318 124 318 m 140 447 q 158 465 158 447 q 153 477 158 472 q 140 482 147 482 q 128 477 133 482 q 124 465 124 472 q 140 447 124 447 m 142 578 q 158 594 158 578 q 142 611 158 611 q 125 594 125 611 q 142 578 125 578 m 124 722 q 140 706 124 706 q 158 722 158 706 q 140 739 158 739 q 124 722 124 739 m 142 833 q 158 851 158 833 q 142 868 158 868 q 125 851 125 868 q 142 833 125 833 m 553 682 q 540 677 546 682 q 535 665 535 672 q 553 647 535 647 q 569 665 569 647 q 565 677 569 672 q 553 682 560 682 m 521 797 q 504 781 504 797 q 521 764 504 764 q 539 781 539 764 q 521 797 539 797 m 403 868 q 386 850 386 868 q 391 838 386 843 q 403 833 396 833 q 415 838 410 833 q 421 850 421 843 q 403 868 421 868 m 265 868 q 253 863 258 868 q 249 850 249 857 q 253 838 249 843 q 265 833 258 833 q 278 838 272 833 q 283 850 283 843 q 265 868 283 868 m 254 494 q 266 500 261 494 q 271 513 271 506 q 266 524 271 519 q 254 529 261 529 q 242 524 247 529 q 236 513 236 519 q 254 494 236 494 m 382 492 q 400 508 400 492 q 382 526 400 526 q 365 508 365 526 q 382 492 365 492 m 378 599 q 435 622 411 599 q 458 679 458 644 q 435 736 458 713 q 378 760 411 760 l 238 760 l 238 758 l 238 749 l 238 600 l 238 599 l 378 599 m 468 403 q 486 419 486 403 q 468 438 486 438 q 451 419 451 438 q 468 403 451 403 m 489 533 q 507 517 489 517 q 519 522 514 517 q 524 533 524 526 q 519 546 524 540 q 507 551 514 551 q 489 533 489 551 m 518 319 q 536 303 518 303 q 553 319 553 303 q 536 338 553 338 q 518 319 518 338 m 554 217 q 542 212 547 217 q 538 200 538 207 q 542 188 538 193 q 554 183 547 183 q 572 200 572 183 q 554 217 572 217 m 558 60 q 576 76 576 60 q 558 94 576 94 q 547 89 551 94 q 542 76 542 83 q 547 65 542 69 q 558 60 551 60 z "},"G":{"ha":735,"x_min":18,"x_max":714,"o":"m 676 506 l 714 506 l 714 317 q 689 194 714 251 q 621 93 664 136 q 520 25 578 50 q 397 0 463 0 l 333 0 q 210 25 268 0 q 110 93 153 50 q 43 194 68 136 q 18 317 18 251 l 18 633 q 43 756 18 699 q 110 856 68 814 q 210 924 153 899 q 333 949 268 949 l 397 949 q 520 924 463 949 q 621 856 578 899 q 689 756 664 814 q 714 633 714 699 l 524 633 l 489 633 q 485 643 478 633 q 482 719 510 674 q 457 744 474 736 q 397 760 429 760 l 333 760 q 244 723 281 760 q 207 633 207 686 l 207 506 l 207 443 l 207 317 q 244 227 207 264 q 333 190 281 190 l 397 190 q 457 206 432 190 q 506 251 489 222 q 524 317 524 281 l 475 317 l 424 317 l 297 317 l 297 381 q 267 496 297 469 q 263 502 263 499 q 271 506 264 506 l 297 506 l 676 506 m 382 393 q 400 410 400 393 q 382 428 400 428 q 365 410 365 428 q 382 393 365 393 m 506 393 q 524 410 524 393 q 506 428 524 428 q 489 410 489 428 q 506 393 489 393 m 592 742 q 574 724 574 742 q 579 712 574 717 q 592 707 585 707 q 603 712 599 707 q 608 724 608 717 q 592 742 608 742 m 506 836 q 489 818 489 836 q 494 806 489 811 q 506 801 499 801 q 518 806 513 801 q 524 818 524 811 q 506 836 524 836 m 383 869 q 365 853 365 869 q 383 836 365 836 q 395 841 390 836 q 400 853 400 846 q 395 865 400 860 q 383 869 390 869 m 257 849 q 245 844 250 849 q 240 832 240 839 q 257 814 240 814 q 275 832 275 814 q 269 844 275 839 q 257 849 264 849 m 125 222 q 142 240 142 222 q 125 257 142 257 q 108 240 108 257 q 125 222 108 222 m 125 353 q 142 371 142 353 q 137 383 142 378 q 125 388 132 388 q 113 383 118 388 q 108 371 108 378 q 125 353 108 353 m 125 481 q 142 499 142 481 q 137 510 142 506 q 125 515 132 515 q 113 510 118 515 q 108 499 108 506 q 125 481 108 481 m 125 607 q 142 625 142 607 q 125 642 142 642 q 108 625 108 642 q 125 607 108 607 m 153 733 q 165 738 160 733 q 169 750 169 743 q 165 763 169 757 q 153 768 160 768 q 135 750 135 768 q 153 733 135 733 m 204 111 q 222 129 222 111 q 204 146 222 146 q 188 129 188 146 q 204 111 188 111 m 331 72 q 347 89 347 72 q 331 107 347 107 q 313 89 313 107 q 331 72 313 72 m 453 72 q 471 89 471 72 q 453 107 471 107 q 436 89 436 107 q 453 72 436 72 m 565 142 q 583 158 583 142 q 565 175 583 175 q 549 158 549 175 q 565 142 549 142 m 606 261 q 617 266 613 261 q 622 278 622 271 q 606 296 622 296 q 588 278 588 296 q 593 266 588 271 q 606 261 599 261 m 624 393 q 640 410 640 393 q 624 428 640 428 q 607 410 607 428 q 624 393 607 393 z "},"F":{"ha":717,"x_min":13,"x_max":717,"o":"m 708 949 q 716 944 715 949 q 713 938 717 940 q 682 822 682 911 l 682 758 l 682 732 q 678 724 682 725 q 671 728 674 724 q 556 758 643 758 l 239 758 l 239 632 l 239 569 l 428 569 q 543 600 518 569 q 551 603 547 604 q 556 596 556 601 l 556 569 l 556 506 l 556 379 l 556 351 q 551 344 556 346 q 543 347 547 343 q 428 379 518 379 l 239 379 l 239 315 l 239 189 l 239 126 q 269 10 239 38 q 273 3 274 7 q 265 0 272 0 l 22 0 q 14 3 15 0 q 18 10 13 7 q 49 126 49 36 l 49 189 l 49 822 q 18 938 49 911 q 14 944 13 940 q 22 949 15 949 l 708 949 m 485 489 q 468 471 468 489 q 485 454 468 454 q 503 471 503 454 q 485 489 503 489 m 140 65 q 157 83 157 65 q 140 100 157 100 q 124 83 124 100 q 140 65 124 65 m 140 199 q 157 215 157 199 q 140 233 157 233 q 124 215 124 233 q 140 199 124 199 m 140 325 q 157 343 157 325 q 152 355 157 350 q 140 360 147 360 q 128 355 133 360 q 124 343 124 350 q 140 325 124 325 m 140 454 q 157 471 157 454 q 140 489 157 489 q 124 471 124 489 q 140 454 124 454 m 142 583 q 158 601 158 583 q 142 618 158 618 q 125 601 125 618 q 142 583 125 583 m 124 729 q 140 711 124 711 q 157 729 157 711 q 140 746 157 746 q 124 729 124 746 m 142 840 q 158 858 158 840 q 142 875 158 875 q 125 858 125 875 q 142 840 125 840 m 368 489 q 350 471 350 489 q 368 454 350 454 q 386 471 386 454 q 368 489 386 489 m 253 493 q 241 488 246 493 q 236 475 236 482 q 241 463 236 468 q 253 458 246 458 q 265 463 260 458 q 271 475 271 468 q 253 493 271 493 m 253 840 q 269 858 269 840 q 253 875 269 875 q 235 858 235 875 q 253 840 235 840 m 367 840 q 385 858 385 840 q 367 875 385 875 q 355 870 360 875 q 350 858 350 865 q 355 845 350 850 q 367 840 360 840 m 483 840 q 501 858 501 840 q 483 875 501 875 q 467 858 467 875 q 483 840 467 840 m 601 840 q 619 858 619 840 q 601 875 619 875 q 585 858 585 875 q 601 840 585 840 z "},"C":{"ha":740,"x_min":19,"x_max":715,"o":"m 525 317 l 715 317 q 690 194 715 251 q 622 93 665 136 q 522 25 579 50 q 399 0 464 0 l 335 0 q 212 25 269 0 q 111 93 154 50 q 44 194 68 136 q 19 317 19 251 l 19 633 q 44 756 19 699 q 111 857 68 814 q 212 925 154 900 q 335 950 269 950 l 399 950 q 522 925 464 950 q 622 857 579 900 q 690 756 665 814 q 715 633 715 699 l 525 633 l 490 633 q 486 643 479 633 q 483 721 510 675 q 472 734 478 728 q 458 744 467 740 q 399 760 432 760 l 335 760 q 245 723 282 760 q 208 633 208 686 l 208 507 l 208 444 l 208 317 q 245 227 208 264 q 335 190 282 190 l 399 190 q 429 194 415 190 q 458 206 443 199 q 483 231 472 213 q 486 307 510 275 q 490 317 479 317 l 525 317 m 589 733 q 572 715 572 733 q 589 699 572 699 q 606 715 606 699 q 589 733 606 733 m 503 840 q 491 835 496 840 q 486 822 486 829 q 491 810 486 815 q 503 806 496 806 q 521 822 521 806 q 503 840 521 840 m 381 874 q 369 869 374 874 q 364 857 364 864 q 381 839 364 839 q 397 857 397 839 q 392 869 397 864 q 381 874 388 874 m 256 853 q 238 835 238 853 q 256 818 238 818 q 267 823 263 818 q 272 835 272 828 q 267 847 272 842 q 256 853 263 853 m 122 646 q 110 641 115 646 q 106 629 106 636 q 110 617 106 622 q 122 611 115 611 q 140 629 140 611 q 135 641 140 636 q 122 646 129 646 m 122 519 q 110 514 115 519 q 106 501 106 508 q 110 490 106 494 q 122 485 115 485 q 140 501 140 485 q 122 519 140 519 m 106 374 q 110 362 106 367 q 122 357 115 357 q 140 374 140 357 q 122 392 140 392 q 110 386 115 392 q 106 374 106 381 m 135 222 q 153 240 153 222 q 147 252 153 247 q 135 257 142 257 q 123 252 128 257 q 118 240 118 247 q 123 228 118 233 q 135 222 128 222 m 150 732 q 167 750 167 732 q 150 767 167 767 q 132 750 132 767 q 150 732 132 732 m 203 115 q 219 133 219 115 q 215 145 219 140 q 203 150 210 150 q 190 145 196 150 q 185 133 185 140 q 203 115 185 115 m 328 75 q 344 93 344 75 q 328 110 344 110 q 311 93 311 110 q 328 75 311 75 m 471 93 q 489 110 489 93 q 471 126 489 126 q 459 122 464 126 q 454 110 454 117 q 459 98 454 103 q 471 93 464 93 m 585 204 q 567 188 567 204 q 585 171 567 171 q 601 188 601 171 q 585 204 601 204 z "},"D":{"ha":742,"x_min":29,"x_max":697,"o":"m 382 950 q 505 925 447 950 q 605 857 563 900 q 672 756 647 814 q 697 633 697 699 l 697 317 q 672 194 697 251 q 605 93 647 136 q 505 25 563 50 q 382 0 447 0 l 318 0 l 129 0 l 38 0 q 31 4 32 0 q 35 13 29 8 q 65 128 65 39 l 65 824 q 35 939 65 911 q 31 946 29 942 q 38 950 32 950 l 65 950 l 382 950 m 629 565 q 613 583 629 583 q 594 565 594 583 q 600 553 594 558 q 613 549 606 549 q 624 553 619 549 q 629 565 629 558 m 629 450 q 624 462 629 457 q 611 467 618 467 q 599 462 604 467 q 594 450 594 457 q 599 437 594 442 q 611 432 604 432 q 629 450 629 432 m 596 711 q 578 693 578 711 q 583 681 578 686 q 596 676 589 676 q 608 681 603 676 q 613 693 613 686 q 596 711 613 711 m 429 861 q 411 844 411 861 q 429 828 411 828 q 446 844 446 828 q 429 861 446 861 m 290 875 q 272 857 272 875 q 290 840 272 840 q 307 857 307 840 q 290 875 307 875 m 160 69 q 178 88 178 69 q 172 99 178 94 q 160 104 167 104 q 148 99 153 104 q 143 88 143 94 q 148 75 143 81 q 160 69 153 69 m 160 201 q 178 219 178 201 q 160 236 178 236 q 148 231 153 236 q 143 219 143 226 q 148 207 143 213 q 160 201 153 201 m 160 329 q 178 346 178 329 q 160 364 178 364 q 148 358 153 364 q 143 346 143 353 q 148 334 143 339 q 160 329 153 329 m 160 457 q 178 475 178 457 q 160 492 178 492 q 148 487 153 492 q 143 475 143 482 q 148 463 143 468 q 160 457 153 457 m 161 588 q 179 606 179 588 q 174 617 179 613 q 161 622 168 622 q 149 617 154 622 q 144 606 144 613 q 149 592 144 597 q 161 588 154 588 m 143 733 q 148 721 143 726 q 160 715 153 715 q 178 733 178 715 q 172 745 178 740 q 160 750 167 750 q 148 745 153 750 q 143 733 143 740 m 161 844 q 179 861 179 844 q 161 879 179 879 q 149 874 154 879 q 144 861 144 868 q 149 849 144 854 q 161 844 154 844 m 272 65 q 290 83 290 65 q 272 100 290 100 q 256 83 256 100 q 272 65 256 65 m 393 74 q 411 92 411 74 q 406 103 411 99 q 393 108 400 108 q 381 103 386 108 q 376 92 376 99 q 393 74 376 74 m 382 190 q 472 227 435 190 q 508 317 508 264 l 508 633 q 472 723 508 686 q 382 760 435 760 l 256 760 l 256 507 l 256 317 l 256 190 l 382 190 m 507 104 q 524 121 524 104 q 507 139 524 139 q 489 121 489 139 q 507 104 489 104 m 543 785 q 555 790 550 785 q 560 801 560 794 q 555 814 560 808 q 543 819 550 819 q 525 801 525 819 q 531 790 525 794 q 543 785 536 785 m 585 207 q 603 224 603 207 q 585 242 603 242 q 568 224 568 242 q 585 207 568 207 m 617 315 q 633 333 633 315 q 617 350 633 350 q 599 333 599 350 q 617 315 599 315 z "},"S":{"ha":756,"x_min":32,"x_max":726,"o":"m 442 568 q 553 546 501 568 q 643 485 604 524 q 704 394 682 446 q 726 283 726 343 q 704 173 726 225 q 643 83 682 121 q 553 22 604 44 q 442 0 501 0 l 379 0 l 315 0 q 205 22 257 0 q 115 83 153 44 q 54 173 76 121 q 32 283 32 225 l 221 283 l 247 283 q 254 275 258 283 q 251 226 239 247 q 278 197 264 206 q 315 189 296 189 l 379 189 l 442 189 q 510 217 482 189 q 538 283 538 244 q 510 351 538 324 q 442 379 482 379 l 379 379 l 315 379 q 205 401 257 379 q 115 463 153 424 q 54 553 76 501 q 32 664 32 606 q 54 774 32 722 q 115 865 76 826 q 205 926 153 904 q 315 949 257 949 l 379 949 l 442 949 q 553 926 501 949 q 643 865 604 904 q 704 774 682 826 q 726 664 726 722 l 538 664 l 510 664 q 504 672 499 664 q 506 721 518 699 q 481 750 494 743 q 442 758 461 758 l 379 758 l 315 758 q 249 731 276 758 q 221 664 221 703 q 249 596 221 624 q 315 568 276 568 l 379 568 l 442 568 m 621 747 q 609 742 614 747 q 604 731 604 738 q 621 713 604 713 q 639 731 639 713 q 633 742 639 738 q 621 747 628 747 m 531 853 q 514 835 514 853 q 531 818 514 818 q 547 835 547 818 q 531 853 547 853 m 403 876 q 386 860 386 876 q 403 843 386 843 q 421 860 421 843 q 403 876 421 876 m 271 876 q 253 860 253 876 q 271 843 253 843 q 288 860 288 843 q 271 876 288 876 m 165 800 q 149 782 149 800 q 153 770 149 775 q 165 765 158 765 q 177 770 172 765 q 182 782 182 775 q 165 800 182 800 m 139 646 q 157 663 157 646 q 139 681 157 681 q 127 675 132 681 q 122 663 122 669 q 127 651 122 656 q 139 646 132 646 m 182 526 q 200 544 200 526 q 182 561 200 561 q 170 556 175 561 q 165 544 165 551 q 170 532 165 538 q 182 526 175 526 m 288 457 q 306 475 306 457 q 300 487 306 482 q 288 492 294 492 q 276 487 281 492 q 271 475 271 482 q 288 457 271 457 m 421 457 q 433 462 428 457 q 438 475 438 467 q 433 487 438 482 q 421 492 428 492 q 408 487 414 492 q 403 475 403 482 q 421 457 403 457 m 165 181 q 178 185 172 181 q 183 197 183 190 q 165 215 183 215 q 153 210 158 215 q 149 197 149 204 q 153 185 149 190 q 165 181 158 181 m 267 100 q 285 118 285 100 q 267 135 285 135 q 250 118 250 135 q 267 100 250 100 m 399 92 q 411 97 406 92 q 417 108 417 101 q 399 126 417 126 q 382 108 382 126 q 387 97 382 101 q 399 92 392 92 m 539 108 q 557 126 557 108 q 539 143 557 143 q 522 126 522 143 q 539 108 522 108 m 547 438 q 565 454 565 438 q 547 471 565 471 q 535 466 540 471 q 531 454 531 461 q 535 442 531 447 q 547 438 540 438 m 621 214 q 633 219 628 214 q 639 231 639 224 q 621 249 639 249 q 604 231 604 249 q 609 219 604 224 q 621 214 614 214 m 621 344 q 639 361 639 344 q 621 379 639 379 q 604 361 604 379 q 621 344 604 344 z "},".":{"ha":232,"x_min":22,"x_max":208,"o":"m 115 185 q 181 158 153 185 q 208 93 208 131 q 181 27 208 54 q 115 0 153 0 q 49 27 76 0 q 22 93 22 54 q 49 158 22 131 q 115 185 76 185 m 119 72 q 131 77 126 72 q 136 89 136 82 q 119 106 136 106 q 103 89 103 106 q 108 77 103 82 q 119 72 113 72 z "},",":{"ha":231,"x_min":24,"x_max":214,"o":"m 96 179 q 144 178 121 185 q 183 155 167 171 q 207 116 200 139 q 208 68 214 93 q 173 -42 199 4 q 89 -119 147 -87 q 51 -100 69 -114 q 50 -92 46 -96 q 74 -44 68 -71 q 50 26 81 -18 q 28 70 32 46 q 30 116 24 94 q 53 155 36 138 q 96 179 71 172 m 117 64 q 133 81 133 64 q 117 97 133 97 q 100 81 100 97 q 117 64 100 64 z "},"a":{"ha":749,"x_min":18,"x_max":722,"o":"m 718 11 q 721 3 722 7 q 714 0 719 0 l 469 0 q 463 3 464 0 q 465 11 461 7 q 497 126 497 36 l 497 253 l 243 253 l 243 126 q 275 11 243 36 q 271 0 286 0 l 26 0 q 19 3 21 0 q 22 11 18 7 q 54 126 54 36 l 54 315 l 54 428 q 65 542 54 488 q 100 653 76 597 l 172 821 q 164 938 190 910 q 161 945 160 942 q 168 949 163 949 l 572 949 q 578 938 586 949 q 568 821 551 913 l 640 653 q 675 542 664 597 q 686 428 686 488 l 686 315 l 686 126 q 718 11 686 36 m 575 510 q 558 492 558 510 q 563 480 558 485 q 575 475 568 475 q 588 480 582 475 q 593 492 593 485 q 575 510 593 510 m 458 888 q 442 871 442 888 q 458 853 442 853 q 475 871 475 853 q 458 888 475 888 m 282 875 q 264 858 264 875 q 282 840 264 840 q 300 858 300 840 q 282 875 300 875 m 149 75 q 167 93 167 75 q 161 105 167 100 q 149 110 156 110 q 136 105 142 110 q 131 93 131 100 q 149 75 131 75 m 153 207 q 171 225 171 207 q 166 237 171 232 q 153 242 161 242 q 141 237 146 242 q 136 225 136 232 q 153 207 136 207 m 153 339 q 171 356 171 339 q 153 374 171 374 q 136 356 136 374 q 153 339 136 339 m 161 467 q 174 472 168 467 q 179 483 179 476 q 161 501 179 501 q 144 483 144 501 q 149 472 144 476 q 161 467 154 467 m 179 593 q 196 610 196 593 q 179 626 196 626 q 161 610 161 626 q 179 593 161 593 m 236 721 q 253 738 253 721 q 236 756 253 756 q 218 738 218 756 q 236 721 218 721 m 294 339 q 313 356 313 339 q 294 374 313 374 q 276 356 276 374 q 294 339 276 339 m 438 338 q 449 342 444 338 q 454 354 454 347 q 438 372 454 372 q 419 354 419 372 q 424 342 419 347 q 438 338 429 338 m 497 442 q 467 578 493 513 l 371 801 l 275 578 q 244 442 246 513 l 497 442 m 500 732 q 517 750 517 732 q 500 768 517 768 q 482 750 482 768 q 500 732 482 732 m 529 622 q 547 604 529 604 q 564 622 564 604 q 547 639 564 639 q 529 622 529 639 m 558 360 q 575 342 558 342 q 593 360 593 342 q 575 376 593 376 q 558 360 558 376 m 585 79 q 597 84 592 79 q 601 96 601 89 q 597 108 601 103 q 585 114 592 114 q 567 96 567 114 q 585 79 567 79 m 585 215 q 597 221 592 215 q 601 233 601 226 q 597 245 601 240 q 585 250 592 250 q 572 245 578 250 q 567 233 567 240 q 585 215 567 215 z "},"b":{"ha":719,"x_min":15,"x_max":685,"o":"m 576 553 q 657 446 631 506 q 684 324 683 386 q 663 204 685 263 q 599 101 640 146 q 499 28 558 56 q 367 0 439 0 l 50 0 l 24 0 q 16 3 17 0 q 19 11 15 7 q 50 126 50 38 l 50 822 q 19 938 50 911 q 16 944 15 940 q 24 949 17 949 l 50 949 l 240 949 l 367 949 q 501 910 443 949 q 590 814 560 872 q 620 685 621 756 q 576 553 619 615 m 493 822 q 476 806 476 822 q 493 788 476 788 q 511 806 511 788 q 493 822 511 822 m 515 585 q 497 601 515 601 q 481 585 481 601 q 497 567 481 567 q 515 585 515 567 m 389 875 q 371 857 371 875 q 376 845 371 850 q 389 840 381 840 q 401 845 396 840 q 406 857 406 850 q 401 870 406 865 q 389 875 396 875 m 265 875 q 249 858 249 875 q 265 840 249 840 q 283 858 283 840 q 265 875 283 875 m 240 632 l 367 632 q 411 651 393 632 q 429 696 429 669 q 411 741 429 722 q 367 760 393 760 l 240 760 l 240 632 m 414 519 q 396 538 414 538 q 384 532 389 538 q 379 519 379 526 q 384 508 379 513 q 396 503 389 503 q 408 508 403 503 q 414 519 414 513 m 147 67 q 159 72 154 67 q 164 83 164 76 q 147 101 164 101 q 129 83 129 101 q 135 72 129 76 q 147 67 140 67 m 147 199 q 164 217 164 199 q 159 228 164 224 q 147 233 154 233 q 135 228 140 233 q 129 217 129 224 q 147 199 129 199 m 147 325 q 164 343 164 325 q 147 361 164 361 q 129 343 129 361 q 147 325 129 325 m 147 454 q 159 459 154 454 q 164 471 164 464 q 147 489 164 489 q 129 471 129 489 q 135 459 129 464 q 147 454 140 454 m 147 583 q 165 601 165 583 q 147 619 165 619 q 131 601 131 619 q 147 583 131 583 m 129 729 q 147 713 129 713 q 164 729 164 713 q 147 747 164 747 q 129 729 129 747 m 147 840 q 165 858 165 840 q 147 875 165 875 q 131 858 131 875 q 147 840 131 840 m 257 542 q 240 524 240 542 q 245 512 240 517 q 257 507 250 507 q 269 512 264 507 q 275 524 275 517 q 257 542 275 542 m 261 67 q 273 72 268 67 q 278 83 278 76 q 261 101 278 101 q 244 83 244 101 q 249 72 244 76 q 261 67 254 67 m 386 67 q 398 72 393 67 q 403 83 403 76 q 386 101 403 101 q 368 83 368 101 q 374 72 368 76 q 386 67 379 67 m 367 190 q 456 226 419 190 q 493 315 493 263 q 483 365 493 342 q 456 406 474 389 q 416 433 439 424 q 367 443 393 443 l 240 443 l 240 190 l 367 190 m 496 107 q 513 124 513 107 q 496 140 513 140 q 479 124 479 140 q 496 107 479 107 m 515 438 q 527 442 522 438 q 532 454 532 447 q 527 466 532 461 q 515 471 522 471 q 497 454 497 471 q 515 438 497 438 m 544 679 q 561 696 561 679 q 544 714 561 714 q 526 696 526 714 q 544 679 526 679 m 579 199 q 597 215 597 199 q 579 233 597 233 q 563 215 563 233 q 579 199 563 199 m 589 325 q 606 343 606 325 q 589 360 606 360 q 571 343 571 360 q 589 325 571 325 z "},"c":{"ha":740,"x_min":19,"x_max":715,"o":"m 525 317 l 715 317 q 690 194 715 251 q 622 93 665 136 q 522 25 579 50 q 399 0 464 0 l 335 0 q 212 25 269 0 q 111 93 154 50 q 44 194 68 136 q 19 317 19 251 l 19 633 q 44 756 19 699 q 111 857 68 814 q 212 925 154 900 q 335 950 269 950 l 399 950 q 522 925 464 950 q 622 857 579 900 q 690 756 665 814 q 715 633 715 699 l 525 633 l 490 633 q 486 643 479 633 q 483 721 510 675 q 472 734 478 728 q 458 744 467 740 q 399 760 432 760 l 335 760 q 245 723 282 760 q 208 633 208 686 l 208 507 l 208 444 l 208 317 q 245 227 208 264 q 335 190 282 190 l 399 190 q 429 194 415 190 q 458 206 443 199 q 483 231 472 213 q 486 307 510 275 q 490 317 479 317 l 525 317 m 589 733 q 572 715 572 733 q 589 699 572 699 q 606 715 606 699 q 589 733 606 733 m 503 840 q 491 835 496 840 q 486 822 486 829 q 491 810 486 815 q 503 806 496 806 q 521 822 521 806 q 503 840 521 840 m 381 874 q 369 869 374 874 q 364 857 364 864 q 381 839 364 839 q 397 857 397 839 q 392 869 397 864 q 381 874 388 874 m 256 853 q 238 835 238 853 q 256 818 238 818 q 267 823 263 818 q 272 835 272 828 q 267 847 272 842 q 256 853 263 853 m 122 646 q 110 641 115 646 q 106 629 106 636 q 110 617 106 622 q 122 611 115 611 q 140 629 140 611 q 135 641 140 636 q 122 646 129 646 m 122 519 q 110 514 115 519 q 106 501 106 508 q 110 490 106 494 q 122 485 115 485 q 140 501 140 485 q 122 519 140 519 m 106 374 q 110 362 106 367 q 122 357 115 357 q 140 374 140 357 q 122 392 140 392 q 110 386 115 392 q 106 374 106 381 m 135 222 q 153 240 153 222 q 147 252 153 247 q 135 257 142 257 q 123 252 128 257 q 118 240 118 247 q 123 228 118 233 q 135 222 128 222 m 150 732 q 167 750 167 732 q 150 767 167 767 q 132 750 132 767 q 150 732 132 732 m 203 115 q 219 133 219 115 q 215 145 219 140 q 203 150 210 150 q 190 145 196 150 q 185 133 185 140 q 203 115 185 115 m 328 75 q 344 93 344 75 q 328 110 344 110 q 311 93 311 110 q 328 75 311 75 m 471 93 q 489 110 489 93 q 471 126 489 126 q 459 122 464 126 q 454 110 454 117 q 459 98 454 103 q 471 93 464 93 m 585 204 q 567 188 567 204 q 585 171 567 171 q 601 188 601 171 q 585 204 601 204 z "},"d":{"ha":742,"x_min":29,"x_max":697,"o":"m 382 950 q 505 925 447 950 q 605 857 563 900 q 672 756 647 814 q 697 633 697 699 l 697 317 q 672 194 697 251 q 605 93 647 136 q 505 25 563 50 q 382 0 447 0 l 318 0 l 129 0 l 38 0 q 31 4 32 0 q 35 13 29 8 q 65 128 65 39 l 65 824 q 35 939 65 911 q 31 946 29 942 q 38 950 32 950 l 65 950 l 382 950 m 629 565 q 613 583 629 583 q 594 565 594 583 q 600 553 594 558 q 613 549 606 549 q 624 553 619 549 q 629 565 629 558 m 629 450 q 624 462 629 457 q 611 467 618 467 q 599 462 604 467 q 594 450 594 457 q 599 437 594 442 q 611 432 604 432 q 629 450 629 432 m 596 711 q 578 693 578 711 q 583 681 578 686 q 596 676 589 676 q 608 681 603 676 q 613 693 613 686 q 596 711 613 711 m 429 861 q 411 844 411 861 q 429 828 411 828 q 446 844 446 828 q 429 861 446 861 m 290 875 q 272 857 272 875 q 290 840 272 840 q 307 857 307 840 q 290 875 307 875 m 160 69 q 178 88 178 69 q 172 99 178 94 q 160 104 167 104 q 148 99 153 104 q 143 88 143 94 q 148 75 143 81 q 160 69 153 69 m 160 201 q 178 219 178 201 q 160 236 178 236 q 148 231 153 236 q 143 219 143 226 q 148 207 143 213 q 160 201 153 201 m 160 329 q 178 346 178 329 q 160 364 178 364 q 148 358 153 364 q 143 346 143 353 q 148 334 143 339 q 160 329 153 329 m 160 457 q 178 475 178 457 q 160 492 178 492 q 148 487 153 492 q 143 475 143 482 q 148 463 143 468 q 160 457 153 457 m 161 588 q 179 606 179 588 q 174 617 179 613 q 161 622 168 622 q 149 617 154 622 q 144 606 144 613 q 149 592 144 597 q 161 588 154 588 m 143 733 q 148 721 143 726 q 160 715 153 715 q 178 733 178 715 q 172 745 178 740 q 160 750 167 750 q 148 745 153 750 q 143 733 143 740 m 161 844 q 179 861 179 844 q 161 879 179 879 q 149 874 154 879 q 144 861 144 868 q 149 849 144 854 q 161 844 154 844 m 272 65 q 290 83 290 65 q 272 100 290 100 q 256 83 256 100 q 272 65 256 65 m 393 74 q 411 92 411 74 q 406 103 411 99 q 393 108 400 108 q 381 103 386 108 q 376 92 376 99 q 393 74 376 74 m 382 190 q 472 227 435 190 q 508 317 508 264 l 508 633 q 472 723 508 686 q 382 760 435 760 l 256 760 l 256 507 l 256 317 l 256 190 l 382 190 m 507 104 q 524 121 524 104 q 507 139 524 139 q 489 121 489 139 q 507 104 489 104 m 543 785 q 555 790 550 785 q 560 801 560 794 q 555 814 560 808 q 543 819 550 819 q 525 801 525 819 q 531 790 525 794 q 543 785 536 785 m 585 207 q 603 224 603 207 q 585 242 603 242 q 568 224 568 242 q 585 207 568 207 m 617 315 q 633 333 633 315 q 617 350 633 350 q 599 333 599 350 q 617 315 599 315 z "},"e":{"ha":757,"x_min":-1,"x_max":729,"o":"m 694 126 q 725 10 694 36 q 728 3 729 7 q 721 0 728 0 l 35 0 q 27 3 28 0 q 31 10 26 7 q 61 126 61 36 l 61 189 l 61 822 q -1 949 61 949 l 721 949 q 728 944 728 949 q 725 938 729 940 q 694 822 694 911 l 694 758 l 694 731 q 690 724 694 725 q 683 728 686 722 q 568 758 657 758 l 251 758 l 251 696 l 251 569 l 442 569 q 557 600 531 569 q 564 603 560 604 q 568 596 568 601 l 568 569 l 568 506 l 568 379 l 568 351 q 564 344 568 346 q 557 347 560 343 q 442 379 529 379 l 251 379 l 251 317 l 251 189 l 568 189 q 683 221 656 189 q 690 224 686 225 q 694 217 694 222 l 694 189 l 694 126 m 499 488 q 482 469 482 488 q 499 453 482 453 q 517 469 517 453 q 499 488 517 488 m 619 874 q 608 869 613 874 q 603 857 603 864 q 608 844 603 850 q 619 839 613 839 q 638 857 638 839 q 619 874 638 874 m 507 874 q 489 857 489 874 q 507 839 489 839 q 519 844 514 839 q 524 857 524 850 q 519 869 524 864 q 507 874 514 874 m 390 874 q 372 857 372 874 q 390 839 372 839 q 402 844 397 839 q 407 857 407 850 q 402 869 407 864 q 390 874 397 874 m 271 874 q 254 857 254 874 q 271 839 254 839 q 288 857 288 839 q 271 874 288 874 m 382 488 q 365 469 365 488 q 382 453 365 453 q 400 469 400 453 q 382 488 400 488 m 268 488 q 250 469 250 488 q 268 453 250 453 q 280 458 275 453 q 285 469 285 463 q 280 482 285 476 q 268 488 275 488 m 150 65 q 168 82 168 65 q 150 100 168 100 q 133 82 133 100 q 150 65 133 65 m 150 197 q 168 214 168 197 q 150 232 168 232 q 133 214 133 232 q 150 197 133 197 m 150 324 q 168 342 168 324 q 150 358 168 358 q 133 342 133 358 q 150 324 133 324 m 150 453 q 168 469 168 453 q 150 488 168 488 q 133 469 133 488 q 150 453 133 453 m 151 582 q 169 600 169 582 q 151 617 169 617 q 133 600 133 617 q 151 582 133 582 m 133 728 q 150 711 133 711 q 168 728 168 711 q 150 746 168 746 q 133 728 133 746 m 151 839 q 169 857 169 839 q 151 874 169 874 q 133 857 133 874 q 151 839 133 839 m 267 65 q 285 82 285 65 q 267 100 285 100 q 250 82 250 100 q 267 65 250 65 m 382 65 q 394 70 389 65 q 399 82 399 75 q 394 94 399 89 q 382 100 389 100 q 364 82 364 100 q 382 65 364 65 m 499 65 q 515 82 515 65 q 499 100 515 100 q 481 82 481 100 q 499 65 481 65 m 621 65 q 633 70 628 65 q 638 82 638 75 q 633 94 638 89 q 621 100 628 100 q 603 82 603 100 q 621 65 603 65 z "},"f":{"ha":717,"x_min":13,"x_max":717,"o":"m 708 949 q 716 944 715 949 q 713 938 717 940 q 682 822 682 911 l 682 758 l 682 732 q 678 724 682 725 q 671 728 674 724 q 556 758 643 758 l 239 758 l 239 632 l 239 569 l 428 569 q 543 600 518 569 q 551 603 547 604 q 556 596 556 601 l 556 569 l 556 506 l 556 379 l 556 351 q 551 344 556 346 q 543 347 547 343 q 428 379 518 379 l 239 379 l 239 315 l 239 189 l 239 126 q 269 10 239 38 q 273 3 274 7 q 265 0 272 0 l 22 0 q 14 3 15 0 q 18 10 13 7 q 49 126 49 36 l 49 189 l 49 822 q 18 938 49 911 q 14 944 13 940 q 22 949 15 949 l 708 949 m 485 489 q 468 471 468 489 q 485 454 468 454 q 503 471 503 454 q 485 489 503 489 m 140 65 q 157 83 157 65 q 140 100 157 100 q 124 83 124 100 q 140 65 124 65 m 140 199 q 157 215 157 199 q 140 233 157 233 q 124 215 124 233 q 140 199 124 199 m 140 325 q 157 343 157 325 q 152 355 157 350 q 140 360 147 360 q 128 355 133 360 q 124 343 124 350 q 140 325 124 325 m 140 454 q 157 471 157 454 q 140 489 157 489 q 124 471 124 489 q 140 454 124 454 m 142 583 q 158 601 158 583 q 142 618 158 618 q 125 601 125 618 q 142 583 125 583 m 124 729 q 140 711 124 711 q 157 729 157 711 q 140 746 157 746 q 124 729 124 746 m 142 840 q 158 858 158 840 q 142 875 158 875 q 125 858 125 875 q 142 840 125 840 m 368 489 q 350 471 350 489 q 368 454 350 454 q 386 471 386 454 q 368 489 386 489 m 253 493 q 241 488 246 493 q 236 475 236 482 q 241 463 236 468 q 253 458 246 458 q 265 463 260 458 q 271 475 271 468 q 253 493 271 493 m 253 840 q 269 858 269 840 q 253 875 269 875 q 235 858 235 875 q 253 840 235 840 m 367 840 q 385 858 385 840 q 367 875 385 875 q 355 870 360 875 q 350 858 350 865 q 355 845 350 850 q 367 840 360 840 m 483 840 q 501 858 501 840 q 483 875 501 875 q 467 858 467 875 q 483 840 467 840 m 601 840 q 619 858 619 840 q 601 875 619 875 q 585 858 585 875 q 601 840 585 840 z "},"g":{"ha":735,"x_min":18,"x_max":714,"o":"m 676 506 l 714 506 l 714 317 q 689 194 714 251 q 621 93 664 136 q 520 25 578 50 q 397 0 463 0 l 333 0 q 210 25 268 0 q 110 93 153 50 q 43 194 68 136 q 18 317 18 251 l 18 633 q 43 756 18 699 q 110 856 68 814 q 210 924 153 899 q 333 949 268 949 l 397 949 q 520 924 463 949 q 621 856 578 899 q 689 756 664 814 q 714 633 714 699 l 524 633 l 489 633 q 485 643 478 633 q 482 719 510 674 q 457 744 474 736 q 397 760 429 760 l 333 760 q 244 723 281 760 q 207 633 207 686 l 207 506 l 207 443 l 207 317 q 244 227 207 264 q 333 190 281 190 l 397 190 q 457 206 432 190 q 506 251 489 222 q 524 317 524 281 l 475 317 l 424 317 l 297 317 l 297 381 q 267 496 297 469 q 263 502 263 499 q 271 506 264 506 l 297 506 l 676 506 m 382 393 q 400 410 400 393 q 382 428 400 428 q 365 410 365 428 q 382 393 365 393 m 506 393 q 524 410 524 393 q 506 428 524 428 q 489 410 489 428 q 506 393 489 393 m 592 742 q 574 724 574 742 q 579 712 574 717 q 592 707 585 707 q 603 712 599 707 q 608 724 608 717 q 592 742 608 742 m 506 836 q 489 818 489 836 q 494 806 489 811 q 506 801 499 801 q 518 806 513 801 q 524 818 524 811 q 506 836 524 836 m 383 869 q 365 853 365 869 q 383 836 365 836 q 395 841 390 836 q 400 853 400 846 q 395 865 400 860 q 383 869 390 869 m 257 849 q 245 844 250 849 q 240 832 240 839 q 257 814 240 814 q 275 832 275 814 q 269 844 275 839 q 257 849 264 849 m 125 222 q 142 240 142 222 q 125 257 142 257 q 108 240 108 257 q 125 222 108 222 m 125 353 q 142 371 142 353 q 137 383 142 378 q 125 388 132 388 q 113 383 118 388 q 108 371 108 378 q 125 353 108 353 m 125 481 q 142 499 142 481 q 137 510 142 506 q 125 515 132 515 q 113 510 118 515 q 108 499 108 506 q 125 481 108 481 m 125 607 q 142 625 142 607 q 125 642 142 642 q 108 625 108 642 q 125 607 108 607 m 153 733 q 165 738 160 733 q 169 750 169 743 q 165 763 169 757 q 153 768 160 768 q 135 750 135 768 q 153 733 135 733 m 204 111 q 222 129 222 111 q 204 146 222 146 q 188 129 188 146 q 204 111 188 111 m 331 72 q 347 89 347 72 q 331 107 347 107 q 313 89 313 107 q 331 72 313 72 m 453 72 q 471 89 471 72 q 453 107 471 107 q 436 89 436 107 q 453 72 436 72 m 565 142 q 583 158 583 142 q 565 175 583 175 q 549 158 549 175 q 565 142 549 142 m 606 261 q 617 266 613 261 q 622 278 622 271 q 606 296 622 296 q 588 278 588 296 q 593 266 588 271 q 606 261 599 261 m 624 393 q 640 410 640 393 q 624 428 640 428 q 607 410 607 428 q 624 393 607 393 z "},"h":{"ha":751,"x_min":21,"x_max":732,"o":"m 690 126 q 721 11 690 38 q 724 4 725 8 q 717 0 724 0 l 472 0 q 465 4 467 0 q 469 11 464 8 q 500 126 500 39 l 500 317 l 500 379 l 247 379 l 247 317 l 247 126 q 278 11 247 38 q 281 4 282 8 q 274 0 279 0 l 31 0 q 22 4 24 0 q 26 11 21 8 q 57 126 57 38 l 57 190 l 57 822 q 26 938 57 913 q 22 945 21 942 q 31 949 24 949 l 274 949 q 281 945 279 949 q 278 938 282 942 q 247 822 247 913 l 247 696 l 247 569 l 500 569 l 500 696 l 500 822 q 469 938 500 911 q 465 945 464 942 q 472 949 467 949 l 717 949 q 721 938 732 949 q 690 822 690 913 l 690 126 m 149 64 q 167 81 167 64 q 149 99 167 99 q 132 81 132 99 q 149 64 132 64 m 149 196 q 167 214 167 196 q 149 231 167 231 q 132 214 132 231 q 149 196 132 196 m 149 324 q 167 340 167 324 q 149 357 167 357 q 132 340 132 357 q 149 324 132 324 m 149 451 q 167 469 167 451 q 149 486 167 486 q 132 469 132 486 q 149 451 132 451 m 150 582 q 168 599 168 582 q 150 617 168 617 q 133 599 133 617 q 150 582 133 582 m 132 726 q 149 710 132 710 q 167 726 167 710 q 149 744 167 744 q 132 726 132 744 m 150 839 q 168 856 168 839 q 150 872 168 872 q 133 856 133 872 q 150 839 133 839 m 296 456 q 308 460 303 456 q 313 472 313 465 q 308 485 313 479 q 296 490 303 490 q 278 472 278 490 q 296 456 278 456 m 439 456 q 456 472 456 456 q 439 490 456 490 q 421 472 421 490 q 439 456 421 456 m 596 890 q 578 872 578 890 q 583 860 578 865 q 596 856 589 856 q 608 860 603 856 q 613 872 613 865 q 608 885 613 879 q 596 890 603 890 m 594 761 q 583 756 588 761 q 578 744 578 751 q 594 726 578 726 q 613 744 613 726 q 607 756 613 751 q 594 761 601 761 m 613 617 q 608 628 613 624 q 596 633 603 633 q 583 628 589 633 q 578 617 578 624 q 596 599 578 599 q 608 604 603 599 q 613 617 613 610 m 594 81 q 613 99 613 81 q 594 115 613 115 q 578 99 578 115 q 594 81 578 81 m 594 214 q 613 231 613 214 q 594 249 613 249 q 578 231 578 249 q 594 214 578 214 m 594 340 q 607 345 601 340 q 613 357 613 350 q 594 375 613 375 q 578 357 578 375 q 583 345 578 350 q 594 340 588 340 m 599 461 q 615 478 615 461 q 599 494 615 494 q 582 478 582 494 q 599 461 582 461 z "},"i":{"ha":321,"x_min":26,"x_max":299,"o":"m 258 126 q 290 11 258 38 q 292 4 293 8 q 285 0 292 0 l 42 0 q 34 4 35 0 q 38 11 33 8 q 68 126 68 38 l 68 822 q 38 938 68 913 q 42 949 26 949 l 194 949 l 258 949 l 285 949 q 290 938 299 949 q 258 822 258 914 l 258 760 l 258 644 l 258 443 l 258 190 l 258 126 m 164 75 q 181 93 181 75 q 164 110 181 110 q 146 93 146 110 q 164 75 146 75 m 164 208 q 181 225 181 208 q 164 242 181 242 q 146 225 146 242 q 164 208 146 208 m 164 335 q 181 351 181 335 q 164 369 181 369 q 146 351 146 369 q 164 335 146 335 m 164 463 q 181 481 181 463 q 164 497 181 497 q 146 481 146 497 q 164 463 146 463 m 164 593 q 182 610 182 593 q 164 628 182 628 q 152 623 157 628 q 147 610 147 618 q 152 598 147 603 q 164 593 157 593 m 146 738 q 164 721 146 721 q 181 738 181 721 q 164 756 181 756 q 146 738 146 756 m 164 850 q 182 867 182 850 q 164 885 182 885 q 152 879 157 885 q 147 867 147 874 q 152 855 147 860 q 164 850 157 850 z "},"j":{"ha":724,"x_min":19,"x_max":724,"o":"m 715 949 q 722 944 721 949 q 719 938 724 940 q 688 822 688 910 l 688 315 q 663 192 688 250 q 594 92 638 135 q 494 25 551 50 q 371 0 436 0 q 248 25 306 0 q 147 92 190 50 q 79 192 104 135 q 54 315 54 250 q 24 431 54 406 q 21 439 19 435 q 28 443 22 443 l 54 443 l 244 443 l 272 443 q 279 439 278 443 q 276 431 281 435 q 244 315 244 406 q 281 226 244 263 q 371 189 318 189 q 421 199 397 189 q 462 226 444 208 q 489 266 479 243 q 499 315 499 289 l 499 443 l 499 632 l 499 758 l 182 758 q 67 728 92 758 q 58 724 63 724 q 54 732 54 725 l 54 758 l 54 822 q 24 938 54 911 q 21 944 19 940 q 28 949 22 949 l 54 949 l 715 949 m 143 843 q 138 867 153 858 q 124 868 131 869 q 114 860 117 867 q 119 836 104 847 q 133 835 126 833 q 143 843 140 836 m 256 843 q 250 867 265 858 q 236 868 243 869 q 226 860 229 867 q 224 847 222 854 q 232 836 226 840 q 246 835 239 833 q 256 843 253 836 m 371 847 q 365 871 381 861 q 351 872 358 874 q 342 865 344 871 q 347 840 333 850 q 361 839 354 838 q 371 847 368 840 m 490 843 q 485 867 500 858 q 471 868 478 869 q 461 860 464 867 q 467 836 451 847 q 481 835 474 833 q 490 843 488 836 m 138 361 q 154 343 138 343 q 172 361 172 343 q 154 379 172 379 q 138 361 138 379 m 163 224 q 181 242 181 224 q 175 253 181 249 q 163 258 169 258 q 151 253 156 258 q 146 242 146 249 q 163 224 146 224 m 251 117 q 269 135 269 117 q 251 151 269 151 q 240 147 244 151 q 235 135 235 142 q 240 122 235 128 q 251 117 244 117 m 374 72 q 385 78 381 72 q 390 90 390 83 q 385 102 390 97 q 374 107 381 107 q 356 90 356 107 q 374 72 356 72 m 576 860 q 575 847 574 854 q 583 836 576 840 q 607 843 597 829 q 608 857 610 850 q 600 867 607 864 q 576 860 586 874 m 592 611 q 574 594 574 611 q 592 576 574 576 q 608 594 608 576 q 592 611 608 611 m 488 97 q 506 115 506 97 q 488 132 506 132 q 471 115 471 132 q 488 97 471 97 m 574 190 q 592 208 592 190 q 586 220 592 215 q 574 225 581 225 q 562 220 567 225 q 557 208 557 215 q 562 195 557 200 q 574 190 567 190 m 592 319 q 608 336 608 319 q 592 353 608 353 q 574 336 574 353 q 592 319 574 319 m 592 449 q 610 467 610 449 q 592 483 610 483 q 580 478 585 483 q 575 467 575 474 q 580 454 575 460 q 592 449 585 449 m 592 706 q 604 710 599 706 q 610 722 610 715 q 592 740 610 740 q 580 735 585 740 q 575 722 575 729 q 580 710 575 715 q 592 706 585 706 z "},"k":{"ha":694,"x_min":3,"x_max":682,"o":"m 646 126 q 678 11 646 39 q 681 4 682 8 q 674 0 679 0 l 429 0 q 422 4 422 0 q 425 11 421 8 q 457 126 457 39 l 457 190 l 457 221 q 442 294 457 260 q 401 356 426 329 q 340 397 375 382 q 267 411 306 411 l 235 411 l 235 317 l 235 190 l 235 126 q 265 11 235 39 q 269 4 271 8 q 263 0 268 0 l 235 0 l 172 0 l 18 0 q 10 4 11 0 q 14 11 10 8 q 44 126 44 38 l 44 822 q 14 938 44 913 q 18 949 3 949 l 263 949 q 269 945 268 949 q 265 938 271 942 q 235 822 235 911 l 235 750 l 235 601 l 267 601 q 340 616 306 601 q 401 656 375 631 q 442 717 426 682 q 457 790 457 751 l 457 822 q 425 938 457 913 q 429 949 414 949 l 674 949 q 681 945 679 949 q 678 938 682 942 q 646 822 646 913 l 646 790 q 613 634 646 708 q 517 507 579 560 q 613 378 579 451 q 646 221 646 304 l 646 190 l 646 126 m 557 881 q 540 864 540 881 q 557 846 540 846 q 575 864 575 846 q 557 881 575 881 m 543 756 q 525 738 525 756 q 543 721 525 721 q 560 738 560 721 q 543 756 560 756 m 140 68 q 157 85 157 68 q 140 103 157 103 q 122 85 122 103 q 140 68 122 68 m 140 200 q 157 217 157 200 q 140 235 157 235 q 122 217 122 235 q 140 200 122 200 m 140 326 q 152 331 147 326 q 157 343 157 336 q 140 361 157 361 q 122 343 122 361 q 128 331 122 336 q 140 326 133 326 m 140 456 q 157 472 157 456 q 140 490 157 490 q 122 472 122 490 q 140 456 122 456 m 140 585 q 158 603 158 585 q 140 619 158 619 q 124 603 124 619 q 140 585 124 585 m 122 731 q 140 713 122 713 q 157 731 157 713 q 140 747 157 747 q 122 731 122 747 m 140 842 q 158 860 158 842 q 153 872 158 867 q 140 876 147 876 q 128 872 133 876 q 124 860 124 867 q 140 842 124 842 m 253 490 q 271 508 271 490 q 266 520 271 515 q 253 525 261 525 q 241 520 246 525 q 236 508 236 515 q 253 490 236 490 m 389 494 q 407 513 407 494 q 389 529 407 529 q 372 513 372 529 q 389 494 372 494 m 469 407 q 481 412 476 407 q 486 424 486 417 q 469 442 486 442 q 451 424 451 442 q 457 412 451 417 q 469 407 463 407 m 486 594 q 504 611 504 594 q 486 629 504 629 q 469 611 469 629 q 486 594 469 594 m 513 317 q 531 300 513 300 q 547 317 547 300 q 531 335 547 335 q 513 317 513 335 m 549 50 q 560 55 556 50 q 565 68 565 60 q 560 80 565 75 q 549 85 556 85 q 531 68 531 85 q 549 50 531 50 m 561 172 q 578 190 578 172 q 561 207 578 207 q 544 190 544 207 q 561 172 544 172 z "},"l":{"ha":618,"x_min":13,"x_max":596,"o":"m 592 11 q 595 4 596 8 q 588 0 594 0 l 561 0 l 28 0 l 26 0 q 24 11 13 3 q 54 126 54 38 l 54 190 l 54 822 q 24 938 54 911 q 28 949 13 949 l 271 949 q 279 945 278 949 q 275 938 281 942 q 244 822 244 911 l 244 696 l 244 569 l 244 379 l 244 317 l 244 190 l 433 190 q 549 221 524 190 q 557 224 553 225 q 561 217 561 224 l 561 190 l 561 126 q 592 11 561 38 m 151 64 q 169 82 169 64 q 151 99 169 99 q 135 82 135 99 q 151 64 135 64 m 151 197 q 169 214 169 197 q 151 232 169 232 q 135 214 135 232 q 151 197 135 197 m 151 324 q 164 328 158 324 q 169 340 169 333 q 151 358 169 358 q 135 340 135 358 q 140 328 135 333 q 151 324 144 324 m 151 453 q 164 458 158 453 q 169 469 169 463 q 151 488 169 488 q 135 469 135 488 q 140 458 135 463 q 151 453 144 453 m 153 582 q 169 600 169 582 q 165 612 169 607 q 153 617 160 617 q 140 612 146 617 q 135 600 135 607 q 153 582 135 582 m 135 728 q 151 710 135 710 q 169 728 169 710 q 164 740 169 735 q 151 744 158 744 q 140 740 144 744 q 135 728 135 735 m 153 839 q 169 857 169 839 q 165 869 169 864 q 153 874 160 874 q 140 869 146 874 q 135 857 135 864 q 153 839 135 839 m 307 64 q 325 82 325 64 q 307 99 325 99 q 290 82 290 99 q 307 64 290 64 m 460 64 q 476 82 476 64 q 460 99 476 99 q 442 82 442 99 q 460 64 442 64 z "},"m":{"ha":924,"x_min":15,"x_max":915,"o":"m 872 126 q 904 11 872 39 q 900 0 915 0 l 656 0 q 649 3 650 0 q 651 11 647 7 q 683 126 683 39 l 683 372 l 574 106 q 563 10 547 43 q 557 0 567 0 l 368 0 q 363 10 357 0 q 351 106 379 40 l 240 375 l 240 164 l 240 163 l 240 126 q 272 11 240 38 q 275 3 276 7 q 268 0 274 0 l 24 0 q 17 3 18 0 q 19 11 15 7 q 50 126 50 38 l 50 822 q 19 938 50 911 q 17 944 15 940 q 24 949 18 949 l 178 949 l 268 949 q 275 944 274 949 q 272 938 276 940 q 246 889 254 924 q 250 851 242 869 l 461 336 l 674 851 q 676 889 682 871 q 651 938 671 922 q 649 944 647 940 q 656 949 650 949 l 810 949 l 900 949 q 908 944 907 949 q 904 938 908 940 q 872 822 872 910 l 872 758 l 872 696 l 872 643 l 872 443 l 872 189 l 872 126 m 140 75 q 157 93 157 75 q 152 105 157 100 q 140 110 147 110 q 128 105 133 110 q 122 93 122 100 q 140 75 122 75 m 140 207 q 157 225 157 207 q 140 242 157 242 q 122 225 122 242 q 140 207 122 207 m 140 335 q 157 351 157 335 q 140 369 157 369 q 122 351 122 369 q 140 335 122 335 m 140 463 q 157 481 157 463 q 140 499 157 499 q 122 481 122 499 q 140 463 122 463 m 142 593 q 153 599 149 593 q 158 611 158 604 q 153 623 158 618 q 142 628 149 628 q 129 623 135 628 q 124 611 124 618 q 142 593 124 593 m 122 739 q 140 721 122 721 q 157 739 157 721 q 152 751 157 746 q 140 756 147 756 q 128 751 133 756 q 122 739 122 746 m 142 850 q 153 855 149 850 q 158 867 158 860 q 153 879 158 874 q 142 885 149 885 q 124 867 124 885 q 142 850 124 850 m 215 683 q 232 701 232 683 q 215 718 232 718 q 197 701 197 718 q 215 683 197 683 m 254 564 q 267 569 261 564 q 272 581 272 574 q 254 599 272 599 q 242 593 247 599 q 238 581 238 588 q 242 569 238 574 q 254 564 247 564 m 299 447 q 315 464 315 447 q 299 481 315 481 q 282 464 282 481 q 299 447 282 447 m 351 329 q 368 346 368 329 q 351 363 368 363 q 333 346 333 363 q 351 329 333 329 m 404 213 q 421 229 421 213 q 404 247 421 247 q 386 229 386 247 q 404 213 386 213 m 456 93 q 474 110 474 93 q 456 126 474 126 q 444 122 449 126 q 439 110 439 117 q 444 98 439 103 q 456 93 449 93 m 514 214 q 532 231 532 214 q 514 247 532 247 q 502 242 507 247 q 497 231 497 238 q 502 219 497 224 q 514 214 507 214 m 565 329 q 582 347 582 329 q 577 359 582 354 q 565 364 572 364 q 553 359 558 364 q 549 347 549 354 q 553 335 549 340 q 565 329 558 329 m 617 447 q 628 453 624 447 q 633 465 633 458 q 628 477 633 472 q 617 482 624 482 q 600 465 600 482 q 617 447 600 447 m 668 574 q 680 578 675 574 q 685 590 685 583 q 680 603 685 597 q 668 608 675 608 q 651 590 651 608 q 668 574 651 574 m 718 686 q 735 704 735 686 q 718 721 735 721 q 701 704 701 721 q 718 686 701 686 m 785 75 q 803 92 803 75 q 785 108 803 108 q 768 92 768 108 q 785 75 768 75 m 785 207 q 803 225 803 207 q 797 237 803 232 q 785 242 792 242 q 773 237 778 242 q 768 225 768 232 q 785 207 768 207 m 785 333 q 803 351 803 333 q 785 368 803 368 q 768 351 768 368 q 785 333 768 333 m 785 463 q 803 481 803 463 q 797 492 803 488 q 785 497 792 497 q 773 492 778 497 q 768 481 768 488 q 785 463 768 463 m 786 593 q 798 598 793 593 q 803 610 803 603 q 798 622 803 617 q 786 626 793 626 q 768 610 768 626 q 786 593 768 593 m 768 738 q 785 721 768 721 q 803 738 803 721 q 785 754 803 754 q 768 738 768 754 m 786 849 q 798 854 793 849 q 803 867 803 860 q 798 878 803 874 q 786 883 793 883 q 768 867 768 883 q 786 849 768 849 z "},"n":{"ha":747,"x_min":17,"x_max":721,"o":"m 685 126 q 717 11 685 39 q 719 4 721 8 q 713 0 718 0 l 468 0 q 461 4 463 0 q 464 11 460 8 q 493 92 489 32 q 491 137 496 117 q 471 176 486 157 l 242 496 l 242 379 l 242 317 l 242 126 q 274 11 242 39 q 276 4 278 8 q 269 0 275 0 l 25 0 q 18 4 19 0 q 21 11 17 8 q 53 126 53 39 l 53 190 l 53 822 q 21 938 53 913 q 18 945 17 942 q 25 949 19 949 l 269 949 q 276 945 275 949 q 274 938 278 942 q 247 885 256 924 q 247 833 242 856 q 268 786 251 810 l 496 468 l 496 569 l 496 696 l 496 822 q 464 938 496 913 q 461 945 460 942 q 468 949 463 949 l 713 949 q 719 945 718 949 q 717 938 721 942 q 685 822 685 913 l 685 126 m 149 67 q 165 85 165 67 q 149 103 165 103 q 132 85 132 103 q 149 67 132 67 m 149 200 q 165 217 165 200 q 149 235 165 235 q 132 217 132 235 q 149 200 132 200 m 149 326 q 165 344 165 326 q 160 356 165 351 q 149 361 156 361 q 137 356 142 361 q 132 344 132 351 q 149 326 132 326 m 149 456 q 160 460 156 456 q 165 472 165 465 q 149 490 165 490 q 132 472 132 490 q 137 460 132 465 q 149 456 142 456 m 150 585 q 167 603 167 585 q 150 619 167 619 q 132 603 132 619 q 150 585 132 585 m 132 731 q 149 713 132 713 q 165 731 165 713 q 149 747 165 747 q 132 731 132 747 m 150 842 q 167 860 167 842 q 162 872 167 867 q 150 876 157 876 q 138 872 143 876 q 132 860 132 867 q 150 842 132 842 m 232 674 q 232 700 246 686 q 227 703 229 701 q 222 704 225 704 l 225 669 q 232 674 228 669 m 296 565 q 308 570 303 565 q 313 582 313 575 q 308 594 313 589 q 296 599 303 599 q 278 582 278 599 q 296 565 278 565 m 374 465 q 390 483 390 465 q 385 495 390 490 q 374 500 381 500 q 361 495 367 500 q 356 483 356 490 q 374 465 356 465 m 447 353 q 459 358 454 353 q 464 371 464 364 q 459 383 464 378 q 447 389 454 389 q 429 371 429 389 q 447 353 429 353 m 518 240 q 529 235 524 235 l 526 269 q 518 265 522 269 q 518 240 506 253 m 593 76 q 610 94 610 76 q 593 111 610 111 q 575 94 575 111 q 593 76 575 76 m 593 210 q 610 226 610 210 q 593 244 610 244 q 575 226 575 244 q 593 210 575 210 m 593 336 q 605 341 600 336 q 610 353 610 346 q 593 371 610 371 q 575 353 575 371 q 581 341 575 346 q 593 336 586 336 m 593 465 q 610 482 610 465 q 593 500 610 500 q 575 482 575 500 q 593 465 575 465 m 594 594 q 606 600 601 594 q 611 613 611 606 q 606 624 611 619 q 594 629 601 629 q 576 613 576 629 q 594 594 576 594 m 575 740 q 593 722 575 722 q 610 740 610 722 q 593 757 610 757 q 575 740 575 757 m 594 851 q 606 856 601 851 q 611 868 611 861 q 606 881 611 875 q 594 886 601 886 q 576 868 576 886 q 581 856 576 861 q 594 851 586 851 z "},"p":{"ha":708,"x_min":21,"x_max":690,"o":"m 372 949 q 504 921 444 949 q 605 848 564 893 q 668 744 646 803 q 690 624 690 686 q 663 503 689 563 q 582 396 636 443 q 485 335 535 354 q 372 317 436 317 l 246 317 l 246 126 q 278 11 246 39 q 281 4 282 8 q 274 0 279 0 l 183 0 l 29 0 q 22 4 24 0 q 25 11 21 8 q 57 126 57 39 l 57 822 q 25 938 57 913 q 22 945 21 942 q 29 949 24 949 l 183 949 l 372 949 m 154 72 q 166 78 161 72 q 171 90 171 83 q 166 102 171 97 q 154 107 161 107 q 142 102 147 107 q 136 90 136 97 q 154 72 136 72 m 154 204 q 166 210 161 204 q 171 222 171 215 q 166 234 171 229 q 154 239 161 239 q 142 234 147 239 q 136 222 136 229 q 154 204 136 204 m 154 331 q 166 336 161 331 q 171 349 171 342 q 166 361 171 356 q 154 367 161 367 q 136 349 136 367 q 154 331 136 331 m 154 460 q 166 465 161 460 q 171 478 171 471 q 166 490 171 485 q 154 494 161 494 q 136 478 136 494 q 154 460 136 460 m 154 590 q 172 607 172 590 q 154 625 172 625 q 138 607 138 625 q 154 590 138 590 m 136 735 q 154 718 136 718 q 166 723 161 718 q 171 735 171 728 q 166 747 171 742 q 154 753 161 753 q 136 735 136 753 m 154 847 q 172 864 172 847 q 154 881 172 881 q 138 864 138 881 q 154 847 138 847 m 418 868 q 400 851 400 868 q 418 833 400 833 q 435 851 435 833 q 418 868 435 868 m 282 881 q 270 876 275 881 q 265 864 265 871 q 270 852 265 857 q 282 847 275 847 q 300 864 300 847 q 282 881 300 881 m 282 400 q 295 405 290 400 q 300 417 300 410 q 282 435 300 435 q 270 429 275 435 q 265 417 265 424 q 270 405 265 410 q 282 400 275 400 m 431 400 q 443 405 438 400 q 449 417 449 410 q 431 435 449 435 q 413 417 413 435 q 418 405 413 410 q 431 400 424 400 m 372 507 q 462 544 425 507 q 499 633 499 581 q 489 683 499 660 q 462 723 479 706 q 422 750 444 740 q 372 760 399 760 l 246 760 l 246 507 l 372 507 m 517 786 q 533 768 517 768 q 551 786 551 768 q 533 803 551 803 q 517 786 517 803 m 551 501 q 563 506 558 501 q 568 518 568 511 q 551 536 568 536 q 533 518 533 536 q 539 506 533 511 q 551 501 544 501 m 578 642 q 596 658 596 642 q 578 676 596 676 q 561 658 561 676 q 578 642 561 642 z "},"q":{"ha":738,"x_min":19,"x_max":715,"o":"m 715 317 q 689 190 715 250 q 614 85 663 129 q 688 13 651 32 q 691 5 692 10 q 683 0 690 0 l 463 0 l 458 7 l 451 17 l 328 190 l 244 310 l 433 310 l 481 310 q 486 301 490 310 q 492 257 481 275 l 501 243 q 525 317 525 276 l 525 443 l 525 507 l 525 633 q 488 723 525 686 q 399 760 451 760 l 336 760 q 287 750 310 760 q 247 723 264 740 q 219 683 229 706 q 210 633 210 660 l 210 507 l 210 443 l 210 317 l 210 310 q 234 242 213 272 q 292 199 256 211 l 431 3 q 415 1 424 1 q 399 0 407 0 l 336 0 q 213 25 271 0 q 113 93 156 50 q 44 194 69 136 q 19 317 19 251 l 19 633 q 44 756 19 699 q 113 857 69 814 q 213 925 156 900 q 336 950 271 950 l 399 950 q 522 925 464 950 q 622 857 579 900 q 690 756 665 814 q 715 633 715 699 l 715 317 m 278 124 q 260 106 260 124 q 278 89 260 89 q 296 106 296 89 q 278 124 296 124 m 124 274 q 135 278 131 274 q 140 290 140 283 q 135 303 140 297 q 124 308 131 308 q 106 290 106 308 q 124 274 106 274 m 101 421 q 119 404 101 404 q 136 421 136 404 q 119 438 136 438 q 101 421 101 438 m 124 524 q 135 529 131 524 q 140 542 140 535 q 135 553 140 549 q 124 558 131 558 q 106 542 106 558 q 124 524 106 524 m 132 658 q 150 676 150 658 q 132 693 150 693 q 115 676 115 693 q 132 658 115 658 m 168 158 q 180 163 175 158 q 185 175 185 168 q 180 188 185 182 q 168 193 175 193 q 150 175 150 193 q 155 163 150 168 q 168 158 160 158 m 185 781 q 201 799 201 781 q 197 810 201 806 q 185 815 192 815 q 173 810 178 815 q 168 799 168 806 q 185 781 168 781 m 296 838 q 313 854 313 838 q 296 872 313 872 q 278 854 278 872 q 296 838 278 838 m 436 829 q 454 847 454 829 q 449 859 454 854 q 436 864 443 864 q 424 859 429 864 q 418 847 418 854 q 436 829 418 829 m 393 228 q 411 244 411 228 q 393 261 411 261 q 376 244 376 261 q 393 228 376 228 m 454 144 q 471 161 471 144 q 454 178 471 178 q 438 161 438 178 q 454 144 438 144 m 638 568 q 619 585 638 585 q 601 568 601 585 q 619 551 601 551 q 638 568 638 551 m 636 451 q 619 468 636 468 q 601 451 601 468 q 619 433 601 433 q 636 451 636 433 m 603 713 q 585 696 585 713 q 603 679 585 679 q 615 684 610 679 q 619 696 619 689 q 615 708 619 703 q 603 713 610 713 m 515 54 q 527 59 522 54 q 532 71 532 64 q 527 83 532 78 q 515 89 522 89 q 497 71 497 89 q 515 54 497 54 m 549 786 q 567 804 567 786 q 549 821 567 821 q 537 816 542 821 q 532 804 532 811 q 537 792 532 797 q 549 786 542 786 m 592 208 q 610 226 610 208 q 592 243 610 243 q 575 226 575 243 q 592 208 575 208 m 606 335 q 624 318 606 318 q 635 323 631 318 q 640 335 640 328 q 635 347 640 342 q 624 353 631 353 q 606 335 606 353 z "},"r":{"ha":697,"x_min":11,"x_max":683,"o":"m 679 11 q 682 4 683 8 q 675 0 681 0 l 431 0 q 424 4 425 0 q 426 11 422 8 q 458 126 458 38 l 458 190 l 458 222 q 444 296 458 261 q 403 356 429 331 q 342 397 376 382 q 268 411 307 411 l 238 411 l 238 317 l 238 190 l 238 126 q 268 11 238 38 q 272 4 272 8 q 264 0 271 0 l 238 0 l 174 0 l 19 0 q 13 4 14 0 q 17 11 11 8 q 47 126 47 39 l 47 822 q 17 938 47 911 q 13 946 11 942 q 19 950 14 950 l 174 950 l 378 950 q 483 928 433 950 q 569 870 532 907 q 627 784 606 833 q 649 679 649 735 q 624 565 649 619 q 553 474 599 511 q 626 356 603 415 q 649 222 649 297 l 649 190 l 649 126 q 679 11 649 38 m 140 60 q 158 76 158 60 q 140 94 158 94 q 124 76 124 94 q 140 60 124 60 m 140 192 q 158 210 158 192 q 153 222 158 217 q 140 226 147 226 q 128 222 133 226 q 124 210 124 217 q 140 192 124 192 m 140 318 q 158 336 158 318 q 153 348 158 343 q 140 353 147 353 q 128 348 133 353 q 124 336 124 343 q 140 318 124 318 m 140 447 q 158 465 158 447 q 153 477 158 472 q 140 482 147 482 q 128 477 133 482 q 124 465 124 472 q 140 447 124 447 m 142 578 q 158 594 158 578 q 142 611 158 611 q 125 594 125 611 q 142 578 125 578 m 124 722 q 140 706 124 706 q 158 722 158 706 q 140 739 158 739 q 124 722 124 739 m 142 833 q 158 851 158 833 q 142 868 158 868 q 125 851 125 868 q 142 833 125 833 m 553 682 q 540 677 546 682 q 535 665 535 672 q 553 647 535 647 q 569 665 569 647 q 565 677 569 672 q 553 682 560 682 m 521 797 q 504 781 504 797 q 521 764 504 764 q 539 781 539 764 q 521 797 539 797 m 403 868 q 386 850 386 868 q 391 838 386 843 q 403 833 396 833 q 415 838 410 833 q 421 850 421 843 q 403 868 421 868 m 265 868 q 253 863 258 868 q 249 850 249 857 q 253 838 249 843 q 265 833 258 833 q 278 838 272 833 q 283 850 283 843 q 265 868 283 868 m 254 494 q 266 500 261 494 q 271 513 271 506 q 266 524 271 519 q 254 529 261 529 q 242 524 247 529 q 236 513 236 519 q 254 494 236 494 m 382 492 q 400 508 400 492 q 382 526 400 526 q 365 508 365 526 q 382 492 365 492 m 378 599 q 435 622 411 599 q 458 679 458 644 q 435 736 458 713 q 378 760 411 760 l 238 760 l 238 758 l 238 749 l 238 600 l 238 599 l 378 599 m 468 403 q 486 419 486 403 q 468 438 486 438 q 451 419 451 438 q 468 403 451 403 m 489 533 q 507 517 489 517 q 519 522 514 517 q 524 533 524 526 q 519 546 524 540 q 507 551 514 551 q 489 533 489 551 m 518 319 q 536 303 518 303 q 553 319 553 303 q 536 338 553 338 q 518 319 518 338 m 554 217 q 542 212 547 217 q 538 200 538 207 q 542 188 538 193 q 554 183 547 183 q 572 200 572 183 q 554 217 572 217 m 558 60 q 576 76 576 60 q 558 94 576 94 q 547 89 551 94 q 542 76 542 83 q 547 65 542 69 q 558 60 551 60 z "},"s":{"ha":756,"x_min":32,"x_max":726,"o":"m 442 568 q 553 546 501 568 q 643 485 604 524 q 704 394 682 446 q 726 283 726 343 q 704 173 726 225 q 643 83 682 121 q 553 22 604 44 q 442 0 501 0 l 379 0 l 315 0 q 205 22 257 0 q 115 83 153 44 q 54 173 76 121 q 32 283 32 225 l 221 283 l 247 283 q 254 275 258 283 q 251 226 239 247 q 278 197 264 206 q 315 189 296 189 l 379 189 l 442 189 q 510 217 482 189 q 538 283 538 244 q 510 351 538 324 q 442 379 482 379 l 379 379 l 315 379 q 205 401 257 379 q 115 463 153 424 q 54 553 76 501 q 32 664 32 606 q 54 774 32 722 q 115 865 76 826 q 205 926 153 904 q 315 949 257 949 l 379 949 l 442 949 q 553 926 501 949 q 643 865 604 904 q 704 774 682 826 q 726 664 726 722 l 538 664 l 510 664 q 504 672 499 664 q 506 721 518 699 q 481 750 494 743 q 442 758 461 758 l 379 758 l 315 758 q 249 731 276 758 q 221 664 221 703 q 249 596 221 624 q 315 568 276 568 l 379 568 l 442 568 m 621 747 q 609 742 614 747 q 604 731 604 738 q 621 713 604 713 q 639 731 639 713 q 633 742 639 738 q 621 747 628 747 m 531 853 q 514 835 514 853 q 531 818 514 818 q 547 835 547 818 q 531 853 547 853 m 403 876 q 386 860 386 876 q 403 843 386 843 q 421 860 421 843 q 403 876 421 876 m 271 876 q 253 860 253 876 q 271 843 253 843 q 288 860 288 843 q 271 876 288 876 m 165 800 q 149 782 149 800 q 153 770 149 775 q 165 765 158 765 q 177 770 172 765 q 182 782 182 775 q 165 800 182 800 m 139 646 q 157 663 157 646 q 139 681 157 681 q 127 675 132 681 q 122 663 122 669 q 127 651 122 656 q 139 646 132 646 m 182 526 q 200 544 200 526 q 182 561 200 561 q 170 556 175 561 q 165 544 165 551 q 170 532 165 538 q 182 526 175 526 m 288 457 q 306 475 306 457 q 300 487 306 482 q 288 492 294 492 q 276 487 281 492 q 271 475 271 482 q 288 457 271 457 m 421 457 q 433 462 428 457 q 438 475 438 467 q 433 487 438 482 q 421 492 428 492 q 408 487 414 492 q 403 475 403 482 q 421 457 403 457 m 165 181 q 178 185 172 181 q 183 197 183 190 q 165 215 183 215 q 153 210 158 215 q 149 197 149 204 q 153 185 149 190 q 165 181 158 181 m 267 100 q 285 118 285 100 q 267 135 285 135 q 250 118 250 135 q 267 100 250 100 m 399 92 q 411 97 406 92 q 417 108 417 101 q 399 126 417 126 q 382 108 382 126 q 387 97 382 101 q 399 92 392 92 m 539 108 q 557 126 557 108 q 539 143 557 143 q 522 126 522 143 q 539 108 522 108 m 547 438 q 565 454 565 438 q 547 471 565 471 q 535 466 540 471 q 531 454 531 461 q 535 442 531 447 q 547 438 540 438 m 621 214 q 633 219 628 214 q 639 231 639 224 q 621 249 639 249 q 604 231 604 249 q 609 219 604 224 q 621 214 614 214 m 621 344 q 639 361 639 344 q 621 379 639 379 q 604 361 604 379 q 621 344 604 344 z "},"t":{"ha":736,"x_min":13,"x_max":719,"o":"m 711 949 q 718 945 717 949 q 714 938 719 942 q 683 822 683 910 l 683 760 l 683 732 q 679 725 683 726 q 672 728 675 724 q 557 760 644 760 l 461 760 l 461 644 l 461 443 l 461 199 l 461 126 q 492 11 461 38 q 495 4 496 8 q 488 0 494 0 l 243 0 q 236 4 238 0 q 240 11 235 8 q 271 126 271 39 l 271 760 l 175 760 q 60 728 85 760 q 52 725 56 724 q 49 732 49 726 l 49 760 l 49 822 q 17 938 49 910 q 14 945 13 942 q 21 949 15 949 l 49 949 l 238 949 l 397 949 l 524 949 l 683 949 l 711 949 m 124 847 q 142 865 142 847 q 124 882 142 882 q 107 865 107 882 q 124 847 107 847 m 246 847 q 263 865 263 847 q 246 882 263 882 q 228 865 228 882 q 246 847 228 847 m 367 74 q 379 78 374 74 q 385 90 385 83 q 367 108 385 108 q 350 90 350 108 q 355 78 350 83 q 367 74 360 74 m 367 206 q 379 210 374 206 q 385 222 385 215 q 367 240 385 240 q 350 222 350 240 q 355 210 350 215 q 367 206 360 206 m 367 333 q 385 350 385 333 q 367 367 385 367 q 350 350 350 367 q 367 333 350 333 m 367 461 q 379 466 374 461 q 385 478 385 471 q 367 496 385 496 q 350 478 350 496 q 355 466 350 471 q 367 461 360 461 m 368 592 q 385 608 385 592 q 368 626 385 626 q 350 608 350 626 q 368 592 350 592 m 350 736 q 367 719 350 719 q 385 736 385 719 q 367 754 385 754 q 350 736 350 754 m 368 847 q 385 865 385 847 q 368 882 385 882 q 350 865 350 882 q 368 847 350 847 m 489 847 q 506 865 506 847 q 489 882 506 882 q 471 865 471 882 q 489 847 471 847 m 611 847 q 628 865 628 847 q 611 882 628 882 q 593 865 593 882 q 611 847 593 847 z "},"u":{"ha":735,"x_min":15,"x_max":719,"o":"m 711 949 q 718 945 717 949 q 714 938 719 942 q 683 822 683 911 l 683 317 q 658 194 683 251 q 590 93 633 136 q 490 25 547 50 q 367 0 432 0 q 244 25 301 0 q 143 93 186 50 q 76 194 100 136 q 51 317 51 251 l 51 822 q 19 938 51 913 q 17 945 15 942 q 24 949 18 949 l 268 949 q 275 945 274 949 q 272 938 276 942 q 240 822 240 913 l 240 632 l 240 443 l 240 317 q 250 267 240 290 q 277 227 260 244 q 317 200 294 210 q 367 190 340 190 q 456 227 419 190 q 493 317 493 264 l 493 443 l 493 632 l 493 822 q 463 938 493 913 q 467 949 451 949 l 711 949 m 157 874 q 139 856 139 874 q 144 844 139 849 q 157 839 150 839 q 169 844 164 839 q 175 856 175 849 q 157 874 175 874 m 156 744 q 144 740 149 744 q 139 728 139 735 q 144 715 139 721 q 156 710 149 710 q 174 728 174 710 q 156 744 174 744 m 175 600 q 157 617 175 617 q 139 600 139 617 q 157 582 139 582 q 175 600 175 582 m 156 488 q 144 482 149 488 q 139 469 139 476 q 144 458 139 463 q 156 453 149 453 q 174 469 174 453 q 156 488 174 488 m 139 340 q 144 328 139 333 q 156 324 149 324 q 174 340 174 324 q 156 358 174 358 q 144 353 149 358 q 139 340 139 349 m 164 197 q 182 214 182 197 q 164 232 182 232 q 147 214 147 232 q 164 197 147 197 m 253 115 q 269 132 269 115 q 253 150 269 150 q 236 132 236 150 q 253 115 236 115 m 375 82 q 393 100 393 82 q 375 117 393 117 q 358 100 358 117 q 375 82 358 82 m 585 890 q 567 874 567 890 q 585 856 567 856 q 597 861 592 856 q 601 874 601 867 q 597 885 601 881 q 585 890 592 890 m 501 115 q 519 132 519 115 q 501 150 519 150 q 490 144 494 150 q 485 132 485 139 q 490 120 485 125 q 501 115 494 115 m 572 226 q 584 231 579 226 q 589 243 589 236 q 584 256 589 250 q 572 261 579 261 q 554 243 554 261 q 572 226 554 226 m 589 364 q 606 381 606 364 q 589 399 606 399 q 571 381 571 399 q 589 364 571 364 m 589 478 q 606 494 606 478 q 589 511 606 511 q 571 494 571 511 q 589 478 571 478 m 589 600 q 606 618 606 600 q 589 635 606 635 q 571 618 571 635 q 589 600 571 600 m 589 725 q 606 743 606 725 q 589 760 606 760 q 571 743 571 760 q 589 725 571 725 z "},"v":{"ha":738,"x_min":21,"x_max":725,"o":"m 717 950 q 724 946 722 950 q 721 939 725 942 q 689 824 689 913 l 689 521 q 643 297 689 406 l 571 128 q 579 11 551 38 q 583 4 583 8 q 575 0 582 0 l 169 0 q 163 4 164 0 q 165 11 163 8 q 175 128 192 38 l 103 297 q 68 406 79 351 q 57 521 57 461 l 57 824 q 25 939 57 911 q 22 946 21 942 q 29 950 24 950 l 274 950 q 281 946 279 950 q 278 939 282 942 q 246 824 246 911 l 246 633 l 246 521 q 276 371 246 444 l 372 149 l 468 371 q 499 521 499 444 l 499 633 l 499 824 q 468 939 499 913 q 465 946 464 942 q 472 950 465 950 l 717 950 m 169 588 q 153 606 169 606 q 135 588 135 606 q 140 576 135 581 q 153 571 146 571 q 165 576 160 571 q 169 588 169 581 m 144 868 q 126 851 126 868 q 144 835 126 835 q 161 851 161 835 q 144 868 161 868 m 126 715 q 144 697 126 697 q 161 715 161 697 q 144 732 161 732 q 126 715 126 732 m 135 456 q 153 438 135 438 q 169 456 169 438 q 165 467 169 463 q 153 472 160 472 q 140 467 146 472 q 135 456 135 463 m 182 308 q 194 313 189 308 q 199 325 199 318 q 194 338 199 332 q 182 343 189 343 q 164 325 164 343 q 182 308 164 308 m 233 189 q 245 194 240 189 q 250 206 250 199 q 245 218 250 213 q 233 224 240 224 q 215 206 215 224 q 233 189 215 189 m 282 72 q 300 90 300 72 q 294 102 300 97 q 282 107 289 107 q 270 102 275 107 q 265 90 265 97 q 282 72 265 72 m 454 72 q 467 77 461 72 q 472 89 472 82 q 454 107 472 107 q 438 89 438 107 q 442 77 438 82 q 454 72 447 72 m 501 193 q 518 210 518 193 q 501 226 518 226 q 483 210 483 226 q 501 193 483 193 m 558 321 q 576 338 576 321 q 558 354 576 354 q 540 338 540 354 q 558 321 540 321 m 575 446 q 593 464 593 446 q 588 476 593 471 q 575 481 582 481 q 563 476 568 481 q 557 464 557 471 q 575 446 557 446 m 583 575 q 601 592 601 575 q 583 610 601 610 q 565 592 565 610 q 583 575 565 575 m 583 706 q 596 710 590 706 q 601 722 601 715 q 583 740 601 740 q 565 722 565 740 q 571 710 565 715 q 583 706 576 706 m 588 839 q 606 856 606 839 q 588 872 606 872 q 569 856 569 872 q 588 839 569 839 z "},"w":{"ha":1169,"x_min":15,"x_max":1161,"o":"m 1153 949 q 1160 944 1158 949 q 1157 938 1161 940 q 1126 822 1126 911 l 1126 632 l 1126 521 q 1079 296 1126 404 l 1007 128 q 1017 11 990 36 q 1019 3 1021 7 q 1013 0 1018 0 l 631 0 q 624 8 621 0 q 611 128 640 56 l 588 182 l 565 128 q 553 8 536 56 q 547 0 554 0 l 164 0 q 157 3 158 0 q 160 11 156 7 q 168 128 186 36 q 124 230 143 188 q 92 306 106 272 q 71 370 79 340 q 58 436 63 400 q 51 519 53 472 q 50 632 50 565 l 50 822 q 19 938 50 911 q 16 944 15 940 q 24 949 17 949 l 268 949 q 274 944 274 949 q 271 938 275 940 q 240 822 240 910 l 240 632 l 240 521 q 271 371 240 442 l 367 147 l 463 371 q 493 521 493 442 l 493 632 l 493 822 q 463 938 493 911 q 459 944 458 940 q 467 949 460 949 l 711 949 q 718 944 717 949 q 714 938 719 940 q 683 822 683 911 l 683 632 l 683 521 q 714 371 683 442 l 810 147 l 906 371 q 936 521 936 442 l 936 632 l 936 822 q 904 938 936 911 q 901 944 900 940 q 908 949 903 949 l 1153 949 m 160 878 q 142 861 142 878 q 160 844 142 844 q 176 861 176 844 q 160 878 176 878 m 158 750 q 140 732 140 750 q 158 715 140 715 q 176 732 176 715 q 158 750 176 750 m 176 604 q 160 622 176 622 q 142 604 142 622 q 160 588 142 588 q 176 604 176 588 m 140 475 q 158 457 140 457 q 176 475 176 457 q 158 492 176 492 q 140 475 140 492 m 176 324 q 194 342 194 324 q 176 358 194 358 q 160 342 160 358 q 176 324 160 324 m 238 206 q 254 222 254 206 q 238 240 254 240 q 219 222 219 240 q 238 206 219 206 m 290 82 q 302 88 297 82 q 307 100 307 93 q 302 113 307 107 q 290 118 297 118 q 272 100 272 118 q 290 82 272 82 m 432 75 q 450 92 450 75 q 432 110 450 110 q 415 92 415 110 q 432 75 415 75 m 497 193 q 515 210 515 193 q 497 228 515 228 q 481 210 481 228 q 497 193 481 193 m 599 881 q 582 863 582 881 q 599 846 582 846 q 615 863 615 846 q 599 881 615 881 m 594 307 q 607 312 601 307 q 613 324 613 317 q 594 342 613 342 q 578 324 578 342 q 583 312 578 317 q 594 307 588 307 m 597 446 q 615 464 615 446 q 597 482 615 482 q 581 464 581 482 q 597 446 581 446 m 599 572 q 615 589 615 572 q 599 607 615 607 q 582 589 582 607 q 599 572 582 572 m 606 708 q 624 726 624 708 q 618 738 624 733 q 606 743 613 743 q 594 738 599 743 q 589 726 589 733 q 594 714 589 719 q 606 708 599 708 m 683 183 q 700 201 700 183 q 683 218 700 218 q 667 201 667 218 q 683 183 667 183 m 740 61 q 758 79 758 61 q 740 96 758 96 q 724 79 724 96 q 740 61 724 61 m 899 65 q 915 83 915 65 q 899 100 915 100 q 881 83 881 100 q 899 65 881 65 m 951 193 q 963 198 958 193 q 968 210 968 203 q 963 222 968 217 q 951 226 958 226 q 933 210 933 226 q 951 193 933 193 m 986 324 q 1003 342 1003 324 q 986 358 1003 358 q 969 342 969 358 q 986 324 969 324 m 1038 451 q 1054 468 1054 451 q 1038 486 1054 486 q 1021 468 1021 486 q 1038 451 1021 451 m 1039 581 q 1056 599 1056 581 q 1051 610 1056 606 q 1039 615 1046 615 q 1027 610 1032 615 q 1022 599 1022 606 q 1039 581 1022 581 m 1021 726 q 1038 708 1021 708 q 1054 726 1054 708 q 1049 738 1054 733 q 1038 743 1044 743 q 1026 738 1031 743 q 1021 726 1021 733 m 1039 838 q 1051 842 1046 838 q 1056 854 1056 847 q 1039 872 1056 872 q 1022 854 1022 872 q 1027 842 1022 847 q 1039 838 1032 838 z "},"x":{"ha":731,"x_min":19,"x_max":701,"o":"m 667 126 q 697 11 667 38 q 701 4 701 8 q 693 0 700 0 l 449 0 q 442 4 443 0 q 446 11 440 8 q 476 126 476 38 l 476 190 l 476 221 q 445 326 476 279 q 361 396 414 374 q 277 326 308 374 q 246 221 246 279 l 246 190 l 246 126 q 276 11 246 38 q 280 4 281 8 q 272 0 279 0 l 28 0 q 21 4 22 0 q 25 11 19 8 q 56 126 56 39 l 56 190 l 56 221 q 89 378 56 304 q 183 506 122 453 q 89 634 122 560 q 56 790 56 708 l 56 822 q 25 938 56 910 q 21 944 19 940 q 28 949 22 949 l 272 949 q 280 944 279 949 q 276 938 281 940 q 246 822 246 911 l 246 790 q 277 685 246 732 q 361 615 308 639 q 445 685 414 639 q 476 790 476 732 l 476 822 q 446 938 476 911 q 442 944 440 940 q 449 949 443 949 l 693 949 q 701 944 700 949 q 697 938 701 940 q 667 822 667 911 l 667 790 q 633 634 667 708 q 538 506 600 560 q 633 378 600 453 q 667 221 667 304 l 667 190 l 667 126 m 139 858 q 144 847 139 851 q 157 842 150 842 q 169 847 164 842 q 175 858 175 851 q 157 876 175 876 q 139 858 139 876 m 175 710 q 192 728 192 710 q 175 744 192 744 q 157 728 157 744 q 175 710 157 710 m 144 65 q 161 82 161 65 q 144 100 161 100 q 126 82 126 100 q 144 65 126 65 m 157 189 q 175 206 175 189 q 157 222 175 222 q 139 206 139 222 q 157 189 139 189 m 192 311 q 204 316 199 311 q 210 328 210 321 q 192 346 210 346 q 175 328 175 346 q 180 316 175 321 q 192 311 185 311 m 222 604 q 240 588 222 588 q 258 604 258 588 q 240 621 258 621 q 222 604 222 621 m 257 417 q 275 435 275 417 q 269 447 275 442 q 257 451 264 451 q 244 447 250 451 q 239 435 239 442 q 257 417 239 417 m 357 496 q 375 514 375 496 q 357 531 375 531 q 339 514 339 531 q 357 496 339 496 m 578 885 q 560 867 560 885 q 565 855 560 860 q 578 850 571 850 q 590 855 585 850 q 594 867 594 860 q 578 885 594 885 m 554 744 q 536 728 536 744 q 554 711 536 711 q 572 728 572 711 q 554 744 572 744 m 464 432 q 482 450 482 432 q 476 462 482 457 q 464 467 471 467 q 451 462 457 467 q 446 450 446 457 q 464 432 446 432 m 489 582 q 507 600 507 582 q 489 617 507 617 q 471 600 471 617 q 489 582 471 582 m 535 324 q 553 342 553 324 q 535 358 553 358 q 517 342 517 358 q 535 324 517 324 m 560 215 q 578 199 560 199 q 594 215 594 199 q 578 233 594 233 q 560 215 560 233 m 585 69 q 603 86 603 69 q 585 103 603 103 q 567 86 567 103 q 585 69 567 69 z "},"y":{"ha":731,"x_min":13,"x_max":717,"o":"m 708 950 q 715 946 714 950 q 713 938 717 942 q 681 822 681 914 l 681 760 l 681 697 q 665 597 681 644 q 619 509 649 549 q 549 440 590 469 q 460 394 508 410 l 460 200 l 460 126 q 490 11 460 38 q 494 4 494 8 q 486 0 493 0 l 242 0 q 235 4 236 0 q 239 11 235 8 q 269 126 269 38 l 269 394 q 179 440 219 410 q 110 509 139 469 q 65 597 81 549 q 49 697 49 644 l 49 760 l 49 822 q 17 938 49 913 q 14 946 13 942 q 21 950 15 950 l 265 950 q 272 946 271 950 q 269 938 274 942 q 238 822 238 913 l 238 760 l 238 697 q 247 647 238 671 q 274 606 257 624 q 315 579 292 589 q 365 569 339 569 q 415 579 392 569 q 454 606 438 589 q 481 647 471 624 q 490 697 490 671 l 490 760 l 490 822 q 460 938 490 913 q 457 946 456 942 q 464 950 458 950 l 708 950 m 146 875 q 129 857 129 875 q 146 840 129 840 q 164 857 164 840 q 146 875 164 875 m 142 719 q 160 738 160 719 q 142 754 160 754 q 130 749 135 754 q 125 738 125 744 q 130 725 125 731 q 142 719 135 719 m 172 596 q 189 614 189 596 q 172 631 189 631 q 154 614 154 631 q 172 596 154 596 m 251 504 q 269 521 269 504 q 251 539 269 539 q 235 521 235 539 q 251 504 235 504 m 369 93 q 381 98 376 93 q 386 110 386 103 q 369 128 386 128 q 353 110 353 128 q 358 98 353 103 q 369 93 363 93 m 369 207 q 386 225 386 207 q 381 237 386 232 q 369 242 376 242 q 358 237 363 242 q 353 225 353 232 q 369 207 353 207 m 369 331 q 386 347 386 331 q 369 365 386 365 q 353 347 353 365 q 369 331 353 331 m 369 456 q 386 472 386 456 q 369 489 386 489 q 353 472 353 489 q 369 456 353 456 m 588 869 q 571 853 571 869 q 588 835 571 835 q 599 840 594 835 q 604 853 604 846 q 599 865 604 860 q 588 869 594 869 m 485 499 q 503 517 503 499 q 485 533 503 533 q 473 528 478 533 q 468 517 468 524 q 473 504 468 510 q 485 499 478 499 m 563 592 q 579 608 579 592 q 563 626 579 626 q 546 608 546 626 q 563 592 546 592 m 592 714 q 603 719 599 714 q 608 732 608 725 q 603 744 608 739 q 592 750 599 750 q 575 732 575 750 q 592 714 575 714 z "},"z":{"ha":782,"x_min":13,"x_max":772,"o":"m 708 126 q 740 11 708 36 q 743 3 744 7 q 736 0 742 0 l 708 0 l 13 0 l 446 758 l 203 758 q 88 728 115 758 q 80 724 83 724 q 76 732 76 725 l 76 758 l 76 822 q 44 938 76 910 q 42 944 40 940 q 49 949 43 949 l 76 949 l 772 949 l 339 189 l 582 189 q 697 221 669 189 q 705 224 701 225 q 708 217 708 222 l 708 189 l 708 126 m 165 851 q 167 865 168 858 q 158 875 165 872 q 135 868 146 883 q 142 846 128 853 q 165 851 156 836 m 286 851 q 288 865 290 858 q 281 875 286 872 q 267 877 274 879 q 257 868 260 875 q 263 846 247 853 q 276 843 269 842 q 286 851 283 844 m 401 856 q 403 869 404 863 q 396 879 403 876 q 382 881 389 882 q 372 872 375 879 q 369 860 368 867 q 378 850 371 853 q 392 847 385 846 q 401 856 399 849 m 619 868 q 626 846 613 853 q 650 851 640 836 q 651 865 653 858 q 643 875 650 872 q 619 868 631 883 m 540 769 q 538 757 536 764 q 546 747 539 750 q 560 744 553 743 q 569 753 567 746 q 564 776 579 768 q 550 778 557 779 q 540 769 543 776 m 492 868 q 497 846 482 853 q 511 843 504 842 q 521 851 518 844 q 522 865 524 858 q 514 875 521 872 q 501 877 508 879 q 492 868 494 875 m 475 660 q 481 635 465 644 q 494 633 488 632 q 504 642 501 635 q 499 665 514 657 q 485 667 492 668 q 475 660 478 665 m 411 547 q 418 524 404 533 q 442 531 432 517 q 435 554 449 544 q 411 547 421 564 m 346 436 q 343 422 342 429 q 351 413 344 415 q 365 410 358 408 q 376 418 372 413 q 378 432 379 425 q 369 442 376 439 q 346 436 356 451 m 182 82 q 175 107 189 97 q 151 100 161 114 q 150 86 149 93 q 158 76 151 79 q 182 82 172 69 m 249 197 q 242 221 256 211 q 228 222 235 224 q 218 215 221 221 q 224 190 210 200 q 249 197 239 183 m 300 81 q 294 104 310 96 q 281 106 288 107 q 271 97 274 104 q 268 85 267 92 q 276 75 269 78 q 290 72 283 71 q 300 81 297 74 m 311 307 q 313 321 314 314 q 306 331 311 328 q 281 325 290 340 q 288 300 274 310 q 301 299 294 297 q 311 307 308 300 m 414 81 q 415 94 417 88 q 407 104 414 101 q 393 106 400 107 q 383 97 386 104 q 381 85 379 92 q 389 75 382 78 q 414 81 404 67 m 529 85 q 531 99 532 92 q 522 108 529 106 q 508 110 515 111 q 499 103 501 108 q 497 89 496 96 q 504 78 497 82 q 529 85 519 69 m 647 81 q 649 94 650 88 q 642 104 649 101 q 628 106 635 107 q 618 97 621 104 q 615 85 614 92 q 624 75 617 78 q 638 72 631 71 q 647 81 644 74 z "},"O":{"ha":768,"x_min":33,"x_max":729,"o":"m 413 940 q 535 915 478 940 q 636 847 593 890 q 704 747 679 804 q 729 624 729 689 l 729 307 q 704 184 729 242 q 636 83 679 126 q 535 16 593 40 q 413 -8 478 -8 l 350 -8 q 227 16 285 -8 q 126 83 169 40 q 58 184 83 126 q 33 307 33 242 l 33 624 q 58 747 33 689 q 126 847 83 804 q 227 915 169 890 q 350 940 285 940 l 413 940 m 649 563 q 643 574 649 569 q 631 579 638 579 q 619 574 624 579 q 614 563 614 569 q 619 550 614 556 q 631 544 624 544 q 649 563 649 544 m 649 446 q 631 463 649 463 q 614 446 614 463 q 631 428 614 428 q 649 446 649 428 m 614 707 q 602 702 607 707 q 597 690 597 697 q 602 678 597 683 q 614 672 607 672 q 632 690 632 672 q 614 707 632 707 m 447 858 q 435 853 440 858 q 431 840 431 847 q 435 828 431 833 q 447 824 440 824 q 460 828 454 824 q 465 840 465 833 q 447 858 465 858 m 307 867 q 290 849 290 867 q 307 832 290 832 q 325 849 325 832 q 307 867 325 867 m 135 268 q 153 285 153 268 q 135 303 153 303 q 123 297 128 303 q 118 285 118 292 q 123 273 118 278 q 135 268 128 268 m 114 415 q 131 399 114 399 q 149 415 149 399 q 131 433 149 433 q 114 415 114 433 m 135 518 q 153 536 153 518 q 135 553 153 553 q 123 548 128 553 q 118 536 118 543 q 123 524 118 529 q 135 518 128 518 m 144 653 q 161 671 161 653 q 144 688 161 688 q 126 671 126 688 q 144 653 126 653 m 179 153 q 196 169 196 153 q 179 188 196 188 q 163 169 163 188 q 179 153 163 153 m 196 775 q 209 780 204 775 q 214 792 214 785 q 196 810 214 810 q 184 805 189 810 q 179 792 179 800 q 184 780 179 785 q 196 775 189 775 m 290 83 q 307 100 307 83 q 290 117 307 117 q 272 100 272 117 q 290 83 272 83 m 413 71 q 429 88 429 71 q 413 104 429 104 q 394 88 394 104 q 413 71 394 71 m 413 181 q 502 217 465 181 q 539 307 539 254 l 539 433 l 539 497 l 539 624 q 502 713 539 676 q 413 750 465 750 l 350 750 q 301 740 324 750 q 260 713 278 731 q 233 673 243 696 q 224 624 224 650 l 224 497 l 224 433 l 224 307 q 233 258 224 281 q 260 217 243 235 q 301 190 278 200 q 350 181 324 181 l 413 181 m 525 100 q 538 105 532 100 q 543 117 543 110 q 525 135 543 135 q 513 130 518 135 q 508 117 508 125 q 513 105 508 110 q 525 100 518 100 m 561 781 q 579 799 579 781 q 561 815 579 815 q 544 799 544 815 q 561 781 544 781 m 604 203 q 621 221 621 203 q 604 238 621 238 q 588 221 588 238 q 604 203 588 203 m 635 313 q 653 329 653 313 q 635 346 653 346 q 618 329 618 346 q 635 313 618 313 z "},"o":{"ha":768,"x_min":33,"x_max":729,"o":"m 413 940 q 535 915 478 940 q 636 847 593 890 q 704 747 679 804 q 729 624 729 689 l 729 307 q 704 184 729 242 q 636 83 679 126 q 535 16 593 40 q 413 -8 478 -8 l 350 -8 q 227 16 285 -8 q 126 83 169 40 q 58 184 83 126 q 33 307 33 242 l 33 624 q 58 747 33 689 q 126 847 83 804 q 227 915 169 890 q 350 940 285 940 l 413 940 m 649 563 q 643 574 649 569 q 631 579 638 579 q 619 574 624 579 q 614 563 614 569 q 619 550 614 556 q 631 544 624 544 q 649 563 649 544 m 649 446 q 631 463 649 463 q 614 446 614 463 q 631 428 614 428 q 649 446 649 428 m 614 707 q 602 702 607 707 q 597 690 597 697 q 602 678 597 683 q 614 672 607 672 q 632 690 632 672 q 614 707 632 707 m 447 858 q 435 853 440 858 q 431 840 431 847 q 435 828 431 833 q 447 824 440 824 q 460 828 454 824 q 465 840 465 833 q 447 858 465 858 m 307 867 q 290 849 290 867 q 307 832 290 832 q 325 849 325 832 q 307 867 325 867 m 135 268 q 153 285 153 268 q 135 303 153 303 q 123 297 128 303 q 118 285 118 292 q 123 273 118 278 q 135 268 128 268 m 114 415 q 131 399 114 399 q 149 415 149 399 q 131 433 149 433 q 114 415 114 433 m 135 518 q 153 536 153 518 q 135 553 153 553 q 123 548 128 553 q 118 536 118 543 q 123 524 118 529 q 135 518 128 518 m 144 653 q 161 671 161 653 q 144 688 161 688 q 126 671 126 688 q 144 653 126 653 m 179 153 q 196 169 196 153 q 179 188 196 188 q 163 169 163 188 q 179 153 163 153 m 196 775 q 209 780 204 775 q 214 792 214 785 q 196 810 214 810 q 184 805 189 810 q 179 792 179 800 q 184 780 179 785 q 196 775 189 775 m 290 83 q 307 100 307 83 q 290 117 307 117 q 272 100 272 117 q 290 83 272 83 m 413 71 q 429 88 429 71 q 413 104 429 104 q 394 88 394 104 q 413 71 394 71 m 413 181 q 502 217 465 181 q 539 307 539 254 l 539 433 l 539 497 l 539 624 q 502 713 539 676 q 413 750 465 750 l 350 750 q 301 740 324 750 q 260 713 278 731 q 233 673 243 696 q 224 624 224 650 l 224 497 l 224 433 l 224 307 q 233 258 224 281 q 260 217 243 235 q 301 190 278 200 q 350 181 324 181 l 413 181 m 525 100 q 538 105 532 100 q 543 117 543 110 q 525 135 543 135 q 513 130 518 135 q 508 117 508 125 q 513 105 508 110 q 525 100 518 100 m 561 781 q 579 799 579 781 q 561 815 579 815 q 544 799 544 815 q 561 781 544 781 m 604 203 q 621 221 621 203 q 604 238 621 238 q 588 221 588 238 q 604 203 588 203 m 635 313 q 653 329 653 313 q 635 346 653 346 q 618 329 618 346 q 635 313 618 313 z "},":":{"ha":232,"x_min":22,"x_max":208,"o":"m 115 185 q 181 158 153 185 q 208 93 208 131 q 181 27 208 54 q 115 0 153 0 q 49 27 76 0 q 22 93 22 54 q 49 158 22 131 q 115 185 76 185 m 119 72 q 131 77 126 72 q 136 89 136 82 q 119 106 136 106 q 103 89 103 106 q 108 77 103 82 q 119 72 113 72 m 115 942 q 181 915 153 942 q 208 850 208 888 q 181 784 208 811 q 115 757 153 757 q 49 784 76 757 q 22 850 22 811 q 49 915 22 888 q 115 942 76 942 m 119 829 q 131 834 126 829 q 136 846 136 839 q 119 863 136 863 q 103 846 103 863 q 108 834 103 839 q 119 829 113 829 z "},";":{"ha":232,"x_min":21,"x_max":211,"o":"m 115 942 q 181 915 153 942 q 208 850 208 888 q 181 784 208 811 q 115 757 153 757 q 49 784 76 757 q 22 850 22 811 q 49 915 22 888 q 115 942 76 942 m 119 829 q 131 834 126 829 q 136 846 136 839 q 119 863 136 863 q 103 846 103 863 q 108 834 103 839 q 119 829 113 829 m 93 183 q 141 182 118 189 q 181 159 164 175 q 204 120 197 143 q 206 72 211 97 q 170 -37 196 8 q 86 -115 144 -83 q 49 -96 67 -110 q 47 -87 43 -92 q 72 -40 65 -67 q 47 31 78 -14 q 25 74 29 50 q 27 120 21 99 q 51 159 33 142 q 93 183 68 176 m 114 68 q 131 85 131 68 q 114 101 131 101 q 97 85 97 101 q 114 68 97 68 z "},"N":{"ha":747,"x_min":17,"x_max":721,"o":"m 685 126 q 717 11 685 39 q 719 4 721 8 q 713 0 718 0 l 468 0 q 461 4 463 0 q 464 11 460 8 q 493 92 489 32 q 491 137 496 117 q 471 176 486 157 l 242 496 l 242 379 l 242 317 l 242 126 q 274 11 242 39 q 276 4 278 8 q 269 0 275 0 l 25 0 q 18 4 19 0 q 21 11 17 8 q 53 126 53 39 l 53 190 l 53 822 q 21 938 53 913 q 18 945 17 942 q 25 949 19 949 l 269 949 q 276 945 275 949 q 274 938 278 942 q 247 885 256 924 q 247 833 242 856 q 268 786 251 810 l 496 468 l 496 569 l 496 696 l 496 822 q 464 938 496 913 q 461 945 460 942 q 468 949 463 949 l 713 949 q 719 945 718 949 q 717 938 721 942 q 685 822 685 913 l 685 126 m 149 67 q 165 85 165 67 q 149 103 165 103 q 132 85 132 103 q 149 67 132 67 m 149 200 q 165 217 165 200 q 149 235 165 235 q 132 217 132 235 q 149 200 132 200 m 149 326 q 165 344 165 326 q 160 356 165 351 q 149 361 156 361 q 137 356 142 361 q 132 344 132 351 q 149 326 132 326 m 149 456 q 160 460 156 456 q 165 472 165 465 q 149 490 165 490 q 132 472 132 490 q 137 460 132 465 q 149 456 142 456 m 150 585 q 167 603 167 585 q 150 619 167 619 q 132 603 132 619 q 150 585 132 585 m 132 731 q 149 713 132 713 q 165 731 165 713 q 149 747 165 747 q 132 731 132 747 m 150 842 q 167 860 167 842 q 162 872 167 867 q 150 876 157 876 q 138 872 143 876 q 132 860 132 867 q 150 842 132 842 m 232 674 q 232 700 246 686 q 227 703 229 701 q 222 704 225 704 l 225 669 q 232 674 228 669 m 296 565 q 308 570 303 565 q 313 582 313 575 q 308 594 313 589 q 296 599 303 599 q 278 582 278 599 q 296 565 278 565 m 374 465 q 390 483 390 465 q 385 495 390 490 q 374 500 381 500 q 361 495 367 500 q 356 483 356 490 q 374 465 356 465 m 447 353 q 459 358 454 353 q 464 371 464 364 q 459 383 464 378 q 447 389 454 389 q 429 371 429 389 q 447 353 429 353 m 518 240 q 529 235 524 235 l 526 269 q 518 265 522 269 q 518 240 506 253 m 593 76 q 610 94 610 76 q 593 111 610 111 q 575 94 575 111 q 593 76 575 76 m 593 210 q 610 226 610 210 q 593 244 610 244 q 575 226 575 244 q 593 210 575 210 m 593 336 q 605 341 600 336 q 610 353 610 346 q 593 371 610 371 q 575 353 575 371 q 581 341 575 346 q 593 336 586 336 m 593 465 q 610 482 610 465 q 593 500 610 500 q 575 482 575 500 q 593 465 575 465 m 594 594 q 606 600 601 594 q 611 613 611 606 q 606 624 611 619 q 594 629 601 629 q 576 613 576 629 q 594 594 576 594 m 575 740 q 593 722 575 722 q 610 740 610 722 q 593 757 610 757 q 575 740 575 757 m 594 851 q 606 856 601 851 q 611 868 611 861 q 606 881 611 875 q 594 886 601 886 q 576 868 576 886 q 581 856 576 861 q 594 851 586 851 z "}}}
